<?xml version="1.0" encoding="utf-8"?>
<!-- Generator: Adobe Illustrator 16.0.0, SVG Export Plug-In . SVG Version: 6.00 Build 0)  -->
<!DOCTYPE svg PUBLIC "-//W3C//DTD SVG 1.1//EN" "http://www.w3.org/Graphics/SVG/1.1/DTD/svg11.dtd">
<svg version="1.1" id="Layer_1" xmlns="http://www.w3.org/2000/svg" xmlns:xlink="http://www.w3.org/1999/xlink" x="0px" y="0px"
	 width="509.231px" height="486.154px" viewBox="0 0 509.231 486.154" enable-background="new 0 0 509.231 486.154"
	 xml:space="preserve">
<g>
	<defs>
		<rect id="SVGID_1_" width="509.231" height="486.154"/>
	</defs>
	<clipPath id="SVGID_2_">
		<use xlink:href="#SVGID_1_"  overflow="visible"/>
	</clipPath>
	<path clip-path="url(#SVGID_2_)" fill="#EFEAB0" d="M270.616,358.996c-1.928,0-4.06-0.084-6.317-0.172
		c-2.939-0.116-5.999-0.238-8.975-0.188l-0.062,0.002l-0.061-0.002c-1.599-0.038-3.201-0.128-4.767-0.263
		c-13.122-1.133-24.655-5.62-33.353-12.977c-7.124-6.023-12.829-14.939-15.651-24.461c-3.625-12.233-2.901-26.198,1.845-35.578
		c3.481-6.88,7.512-12.782,11.068-17.99c4.501-6.592,8.389-12.284,10.424-18.508c0.381-1.165,0.795-2.319,1.217-3.492
		c1.769-4.923,3.599-10.013,3.463-17.992c-0.295-17.216-0.115-28.114,4.852-34.267c3.925-4.86,9.701-5.88,13.856-5.88
		c0.709,0,1.274,0.03,1.638,0.049l0.12,0.007c1.272,0.067,3.008,0.044,4.525-0.041c0.338-0.051,0.897-0.11,2.029-0.175
		c0.478-0.064,1.031-0.096,1.643-0.096l0.291,0.003c2.881-0.119,7.236-0.232,12.951-0.335l0.361-0.004
		c6.455,0,17.407,3.272,18.228,25.183l0.017,0.422c0.436,11.663,0.932,24.881,4.001,33.534c3.838,10.825,10.491,19.321,16.36,26.815
		c3.96,5.059,7.701,9.835,10.209,14.793c5.691,11.249,6.257,27.205,1.405,39.704c-2.373,6.113-7.068,12.488-12.887,17.492
		c-14.962,12.869-24.698,14.357-30.72,14.357c-0.866,0-1.641-0.032-2.331-0.062c-0.698-0.027-1.31-0.064-1.793-0.021
		C273.2,358.95,272.026,358.996,270.616,358.996 M256.729,352.625c2.647,0,5.27,0.104,7.806,0.202
		c2.196,0.087,4.272,0.168,6.082,0.168c1.222,0,2.212-0.037,3.026-0.114c0.717-0.066,1.562-0.044,2.604,0
		c0.615,0.026,1.308,0.057,2.08,0.057c5.066,0,13.357-1.338,26.808-12.906c5.094-4.382,9.178-9.89,11.205-15.114
		c4.205-10.835,3.726-25.156-1.165-34.825c-2.241-4.431-5.805-8.982-9.579-13.802c-6.153-7.855-13.127-16.762-17.293-28.509
		c-3.375-9.518-3.888-23.223-4.341-35.315l-0.017-0.423c-0.332-8.853-2.723-19.407-12.231-19.407l-0.253,0.003
		c-3.965,0.072-7.266,0.148-9.86,0.227c-0.949,0.485-2.073,0.569-2.62,0.609c-0.231,0.018-0.613,0.028-1.069,0.028
		c-1.399,0-2.716,0-3.78-0.237c-1.575,0.069-3.251,0.076-4.527,0.01l-0.134-0.007c-0.292-0.016-0.745-0.041-1.314-0.041
		c-2.846,0-6.751,0.633-9.188,3.65c-3.957,4.901-3.736,17.862-3.521,30.395c0.155,9.077-1.954,14.946-3.816,20.123
		c-0.401,1.119-0.797,2.217-1.16,3.328c-2.301,7.036-6.61,13.346-11.172,20.026c-3.621,5.303-7.365,10.786-10.67,17.315
		c-4.091,8.088-4.659,20.319-1.445,31.163c2.499,8.43,7.518,16.298,13.772,21.585c7.745,6.551,18.117,10.556,29.995,11.581
		c1.423,0.123,2.882,0.204,4.337,0.24C255.766,352.628,256.247,352.625,256.729,352.625"/>
	<path clip-path="url(#SVGID_2_)" fill="#EFEAB0" d="M257.459,189.458c0,0,5.015-9.598,6.416-16.71
		c1.398-7.112,2.903-10.887,10.016-16.895c7.11-6.008,18.384-10.654,21.318-10.463c2.934,0.189-4.177,1.537-3.251,11.851
		c0.923,10.314-0.255,22.738-22.699,31.022C266.761,189.267,261.907,189.987,257.459,189.458"/>
	<path clip-path="url(#SVGID_2_)" fill="#EFEAB0" d="M260.596,192.637c-1.203,0-2.378-0.067-3.492-0.2l-4.315-0.513l2.012-3.854
		c0.048-0.093,4.832-9.306,6.131-15.902c1.546-7.86,3.42-12.183,11.023-18.607c7-5.914,18.731-11.177,23.07-11.177
		c0.133,0,0.259,0.005,0.379,0.013c1.694,0.109,2.809,0.817,3.308,2.104c0.748,1.928-0.596,3.325-1.17,3.922
		c-1.075,1.117-3.075,3.197-2.595,8.55c0.452,5.055,0.525,11.667-2.946,17.985c-3.761,6.846-10.861,12.118-21.702,16.119
		C267.938,192.028,264.189,192.637,260.596,192.637 M289.679,150.008c-4.16,1.704-9.698,4.626-13.853,8.136
		c-6.568,5.55-7.738,8.73-9.008,15.183c-0.876,4.447-3.017,9.68-4.646,13.264c2.567-0.147,4.773-0.631,5.967-1.112
		c20.849-7.696,21.681-18.471,20.83-27.97C288.692,154.409,289.052,151.947,289.679,150.008"/>
	<path clip-path="url(#SVGID_2_)" fill="#EFEAB0" d="M263.392,200.7c-1.299-0.746-4.41-5.301-7.255-6.074
		c-4.869-1.322-8.327-1.722-8.361-1.726l0.772-4.544c0.158,0.018,3.811-0.973,9.162,0.48c6.78,1.842,8.389,9.326,8.38,10.652
		C266.08,200.987,264.693,201.446,263.392,200.7"/>
</g>
</svg>
