<?xml version="1.0" encoding="utf-8"?>
<!-- Generator: Adobe Illustrator 16.0.0, SVG Export Plug-In . SVG Version: 6.00 Build 0)  -->
<!DOCTYPE svg PUBLIC "-//W3C//DTD SVG 1.1//EN" "http://www.w3.org/Graphics/SVG/1.1/DTD/svg11.dtd">
<svg version="1.1" xmlns="http://www.w3.org/2000/svg" xmlns:xlink="http://www.w3.org/1999/xlink" x="0px" y="0px"
	 width="71.333px" height="71.333px" viewBox="0 0 71.333 71.333" enable-background="new 0 0 71.333 71.333" xml:space="preserve">
<g id="Layer_2">
</g>
<g id="Layer_3">
</g>
<g id="Layer_4">
</g>
<g id="Layer_5">
</g>
<g id="Layer_6">
	<g>
		<path fill="#EEECAF" d="M63.803,20.496l1.075-1.65l-1.964,0.139c-0.246,0.017-6.041,0.431-8.336,0.897
			c-2.659,0.54-4.278,1.626-6.9,3.856c-0.839,0.714-1.654,1.779-2.354,2.995c0.392-2.789,0.317-6.244-1.03-9.51
			c-1.899-4.607-5.231-5.931-7.664-6.897c-0.954-0.379-1.778-0.707-2.279-1.137c-2.062-1.773-3.201-2.758-3.202-2.758l-1.071-0.926
			l-0.488,1.33c-0.018,0.05-1.848,5.035-3.001,7.635c-1.308,2.947-1.298,4.918-0.604,9.346c0.319,2.032,1.427,4.526,3.004,6.81
			c-1.82-0.927-4.059-1.598-6.51-1.475c-4.147,0.208-6.312,2.649-7.892,4.432c-0.615,0.692-1.145,1.291-1.63,1.58
			c-1.92,1.14-3.239,1.627-3.251,1.631l-1.458,0.529l1.105,1.089c0.032,0.032,3.313,3.268,4.819,5.033
			c1.769,2.073,3.263,2.683,6.855,3.465c0.56,0.122,1.194,0.184,1.882,0.184c0.961,0,2.007-0.12,3.052-0.335
			c-1.307,1.287-2.519,2.845-3.391,4.672c-2.041,4.279-0.878,7.4-0.029,9.679c0.328,0.881,0.611,1.643,0.624,2.245
			c0.042,2.186-0.449,3.332-0.473,3.386l-1.024,2.133l2.237-0.794c0,0,5.31-1.884,7.905-2.806c2.878-1.022,4.25-2.304,6.912-5.637
			c1.358-1.701,2.506-4.425,3.071-7.286c0.067-0.342,0.136-0.736,0.193-1.16c0.873,2.271,2.42,4.837,4.938,6.644
			c1.913,1.373,4.004,2.04,6.391,2.04c1.213,0,2.296-0.165,3.252-0.31c0.779-0.119,1.43-0.221,1.913-0.186
			c1.921,0.142,2.687,0.556,2.762,0.598l1.646,1.162l-0.124-2.033c-0.003-0.051-0.305-5.025-0.486-7.484
			c-0.206-2.805-1.058-4.26-3.512-7.205c-1.375-1.649-3.946-3.196-6.476-4.073c2.481-0.604,6.058-2.215,8.312-5.423
			c2.228-3.171,1.907-5.919,1.65-8.126c-0.118-1.01-0.22-1.882-0.044-2.583C62.711,22.193,63.792,20.512,63.803,20.496z
			 M43.691,35.605c0.737,1.178,1.683,1.354,2.181,1.354c0.413,0,0.816-0.115,1.169-0.334c0.671-0.416,0.985-1.107,1.214-1.613
			c0.047-0.104,0.093-0.206,0.141-0.301c0.044-0.088,0.117-0.192,0.173-0.192c0.042,0,0.119,0.026,0.203,0.1
			c0.116,0.103,0.189,0.203,0.19,0.264c0,0.097-0.114,0.365-0.547,0.757c-0.844,0.764-1.161,1.858-0.847,2.929
			c0.116,0.395,0.309,0.751,0.56,1.054c-0.697,0.044-1.29,0.2-1.751,0.482c-1.524,0.933-1.703,2.44-1.092,3.445
			c0.422,0.698,1.11,1.019,1.663,1.277c0.109,0.051,0.217,0.101,0.318,0.153c0.129,0.066,0.216,0.145,0.227,0.207
			c0.011,0.057-0.022,0.163-0.119,0.271c-0.058,0.064-0.204,0.214-0.318,0.214c-0.137,0-0.437-0.158-0.831-0.602
			c-0.583-0.658-1.368-1.021-2.211-1.021c-1.246,0-2.363,0.78-2.792,1.882c-0.042-0.051-0.083-0.106-0.129-0.154
			c-0.728-0.746-1.478-0.903-1.978-0.903c-0.648,0-1.273,0.257-1.758,0.722c-0.617,0.591-0.83,1.358-1.001,1.974
			c-0.036,0.129-0.071,0.255-0.11,0.376c-0.055,0.174-0.189,0.467-0.462,0.467c-0.069,0-0.142-0.019-0.212-0.055
			c-0.129-0.065-0.216-0.138-0.229-0.19c-0.027-0.12,0.054-0.492,0.533-1.125c0.765-1.014,0.915-2.236,0.4-3.269
			c-0.526-1.057-1.625-1.678-2.829-1.551c-0.077,0.008-0.167,0.025-0.263,0.045c0.439-1.551-0.322-2.639-1.282-3.012
			c-0.265-0.104-0.557-0.156-0.868-0.156c-0.434,0-0.834,0.098-1.187,0.186c-0.113,0.027-0.224,0.055-0.332,0.076
			c-0.109,0.022-0.209,0.014-0.221,0c-0.019-0.02-0.062-0.105-0.046-0.268c0.034-0.376,0.114-0.486,0.577-0.486
			c0.148,0,0.319,0.018,0.507,0.053c1.186,0.219,2.361-0.312,3.006-1.345c0.41-0.656,0.558-1.425,0.437-2.139
			c0.452,0.194,0.91,0.312,1.363,0.312l0.069-0.001c1.884-0.048,2.845-1.396,2.821-2.702c-0.016-0.892-0.468-1.599-0.831-2.168
			c-0.077-0.121-0.153-0.238-0.22-0.354c-0.092-0.158-0.187-0.386-0.116-0.58c0.046-0.128,0.165-0.234,0.325-0.292
			c0.112-0.04,0.212-0.061,0.292-0.061c0.312,0,0.546,0.659,0.661,1.275c0.348,1.876,1.806,2.716,3.097,2.716l0,0
			c0.771,0,1.488-0.288,2.037-0.795C43.121,33.769,43.228,34.864,43.691,35.605z M28.376,15.264c0.817-1.839,1.928-4.745,2.56-6.431
			c0.529,0.456,1.248,1.075,2.139,1.841c0.75,0.644,1.761,1.046,2.833,1.472c2.34,0.93,4.993,1.984,6.577,5.825
			c2.422,5.877,0.139,12.271-0.42,12.995c-0.196,0.255-0.498,0.401-0.829,0.401c-0.467,0-1.02-0.293-1.172-1.116
			c-0.464-2.501-1.819-2.875-2.585-2.875c-0.305,0-0.625,0.059-0.95,0.175c-0.71,0.253-1.259,0.788-1.506,1.464
			c-0.258,0.709-0.164,1.503,0.265,2.238c0.081,0.137,0.169,0.277,0.26,0.42c0.255,0.398,0.518,0.811,0.524,1.15
			c0.004,0.256-0.108,0.689-0.915,0.709l-0.019,0c-2.045,0-6.557-5.792-7.219-10.021C27.23,19.128,27.312,17.663,28.376,15.264z
			 M21.441,44.997c-3.445-0.75-4.417-1.225-5.782-2.823c-1.032-1.209-2.796-3.014-3.913-4.138c0.589-0.284,1.342-0.675,2.21-1.19
			c0.748-0.444,1.402-1.183,2.095-1.964c1.5-1.692,3.199-3.609,6.524-3.776c0.16-0.007,0.319-0.011,0.477-0.011
			c4.84,0,8.426,3.581,8.73,4.205c0.135,0.278,0.095,0.663-0.104,0.98c-0.11,0.178-0.362,0.476-0.797,0.476
			c-0.062,0-0.127-0.006-0.193-0.019c-0.306-0.056-0.596-0.085-0.863-0.085c-1.452,0-2.397,0.847-2.526,2.265
			c-0.061,0.672,0.139,1.316,0.549,1.766c0.492,0.54,1.249,0.762,2.055,0.599c0.132-0.026,0.27-0.06,0.41-0.095
			c0.344-0.083,0.727-0.165,0.878-0.105c0.194,0.076,0.214,0.414,0.047,0.843c-0.533,1.372-4.748,3.21-8.33,3.21
			C22.359,45.136,21.866,45.089,21.441,44.997z M37.191,58.416c-2.63,3.294-3.703,4.184-6.038,5.014
			c-1.647,0.585-4.387,1.557-6.169,2.19c0.093-0.621,0.155-1.389,0.137-2.303c-0.018-0.936-0.372-1.885-0.746-2.89
			c-0.808-2.167-1.723-4.623-0.039-8.154c2.587-5.425,8.464-8.01,9.316-8.101c0.034-0.004,0.067-0.005,0.1-0.005
			c0.327,0,0.621,0.185,0.77,0.482c0.182,0.364,0.106,0.796-0.211,1.216c-0.779,1.031-1.065,1.929-0.877,2.746
			c0.103,0.444,0.403,1.065,1.249,1.494c0.342,0.175,0.723,0.267,1.099,0.267c1.074,0,1.966-0.701,2.327-1.828
			c0.046-0.144,0.088-0.294,0.131-0.449c0.124-0.445,0.241-0.866,0.471-1.086c0.056-0.053,0.206-0.177,0.403-0.177
			c0.225,0,0.438,0.17,0.578,0.313C40.841,48.325,39.862,55.07,37.191,58.416z M57.26,45.669c2.36,2.831,2.904,3.914,3.064,6.095
			c0.118,1.606,0.289,4.296,0.393,5.97c-0.538-0.129-1.227-0.243-2.094-0.308c-0.669-0.049-1.448,0.064-2.352,0.202
			c-0.887,0.135-1.893,0.288-2.958,0.288c-1.991,0-3.66-0.531-5.25-1.672c-4.329-3.106-5.198-8.69-5.062-9.457
			c0.076-0.431,0.529-0.781,1.01-0.781c0.282,0,0.534,0.121,0.747,0.361c0.741,0.837,1.513,1.261,2.295,1.261
			c0.457,0,1.136-0.15,1.777-0.865c0.496-0.555,0.709-1.258,0.585-1.931s-0.569-1.239-1.252-1.591
			c-0.124-0.064-0.255-0.126-0.39-0.189c-0.329-0.153-0.702-0.327-0.817-0.517c-0.202-0.333,0.287-0.666,0.44-0.76
			c0.131-0.08,0.447-0.213,1.104-0.213C51.193,41.562,55.532,43.596,57.26,45.669z M60.307,23.735
			c-0.262,1.049-0.136,2.135-0.002,3.286c0.242,2.072,0.492,4.214-1.307,6.774c-2.617,3.725-7.317,4.882-8.733,4.882
			c-0.101,0-0.144-0.006-0.148-0.007c-0.302-0.05-0.571-0.312-0.671-0.651c-0.071-0.242-0.079-0.6,0.283-0.927
			c0.796-0.72,1.196-1.468,1.191-2.223c-0.003-0.445-0.155-1.105-0.856-1.721c-0.431-0.377-0.961-0.585-1.494-0.585
			c-0.814,0-1.514,0.462-1.92,1.268c-0.06,0.119-0.117,0.244-0.175,0.373c-0.14,0.308-0.298,0.657-0.464,0.759
			c-0.024,0.015-0.073,0.04-0.137,0.04c-0.156,0-0.352-0.162-0.521-0.435c-0.826-1.321,0.887-7.033,3.595-9.337
			c2.707-2.302,3.945-3.008,6.022-3.429c1.412-0.287,4.381-0.563,6.301-0.723C60.927,21.807,60.559,22.729,60.307,23.735z"/>
		<circle fill="#EEECAF" cx="39.99" cy="39.348" r="5.027"/>
	</g>
</g>
<g id="Layer_7">
</g>
</svg>
