<?xml version="1.0" encoding="utf-8"?>
<!-- Generator: Adobe Illustrator 16.0.0, SVG Export Plug-In . SVG Version: 6.00 Build 0)  -->
<!DOCTYPE svg PUBLIC "-//W3C//DTD SVG 1.1//EN" "http://www.w3.org/Graphics/SVG/1.1/DTD/svg11.dtd">
<svg version="1.1" xmlns="http://www.w3.org/2000/svg" xmlns:xlink="http://www.w3.org/1999/xlink" x="0px" y="0px"
	 width="71.998px" height="71.998px" viewBox="0 0 71.998 71.998" enable-background="new 0 0 71.998 71.998" xml:space="preserve">
<g id="Layer_2">
</g>
<g id="Layer_3">
</g>
<g id="Layer_4">
</g>
<g id="Layer_5">
</g>
<g id="Layer_6">
	<path fill="#EEECAF" d="M61.73,11.592c-0.078-0.117-0.261-0.389-2.381-2.095c-2.102-1.754-2.405-1.88-2.535-1.935
		c-0.628-0.259-1.37-0.049-1.829,0.511C54.784,8.32,54.66,8.496,54.58,8.657c-0.094,0.124-0.335,0.417-0.609,0.742
		c-0.361-0.017-0.697,0.147-0.933,0.435l-1.146,1.399l0.619,0.507c-0.334,0.33-0.614,0.602-0.68,0.658
		c-0.267,0.21-6.474,4.826-10.6,7.892c-0.342,0.215-1.324,0.795-1.885,0.965c-1.06,0.32-1.994,1.493-2.205,1.774l-2.237,2.729
		c-0.218,0.199-0.359,0.371-0.452,0.512c-0.396,0.243-1.19,0.784-1.726,2.167c-0.476,1.226-0.669,1.981-0.74,2.31
		c-0.094,0.155-0.335,0.525-0.845,1.147L18.045,47.872c-0.034,0.041-0.194,0.209-0.324,0.282c-0.391,0.219-2.562,1.759-4.015,3.299
		c-0.18,0.19-0.36,0.377-0.538,0.562c-1.385,1.436-2.693,2.791-2,4.168l0.086,0.174c0.47,0.963,1.114,2.282,5.163,5.607l0.043,0.036
		c4.044,3.307,5.463,3.68,6.499,3.952l0.188,0.05c0.149,0.041,0.303,0.062,0.457,0.062c1.271,0,2.184-1.318,3.24-2.844
		c0.145-0.21,0.293-0.423,0.443-0.635c1.226-1.73,2.309-4.159,2.447-4.585c0.04-0.123,0.15-0.294,0.213-0.373l13.093-15.976
		c0.515-0.628,0.831-0.938,0.957-1.054c0.308-0.134,1.01-0.471,2.121-1.18c1.252-0.799,1.626-1.684,1.786-2.12
		c0.119-0.118,0.26-0.29,0.413-0.542l2.237-2.73c0.234-0.263,1.201-1.409,1.307-2.511c0.056-0.585,0.423-1.639,0.576-2.038
		c2.195-4.648,5.502-11.642,5.648-11.93c0.048-0.086,0.261-0.417,0.519-0.81l0.495,0.406l1.146-1.398
		c0.204-0.249,0.299-0.553,0.269-0.856c-0.005-0.049-0.014-0.097-0.025-0.145c0.265-0.331,0.504-0.625,0.607-0.742
		c0.143-0.111,0.292-0.267,0.492-0.512C62.06,12.912,62.116,12.167,61.73,11.592z M56.381,16.63
		c-0.128,0.241-4.402,9.285-5.708,12.051l-0.027,0.063c-0.062,0.162-0.616,1.61-0.71,2.583c-0.034,0.355-0.507,1.053-0.834,1.419
		l-2.328,2.839l-0.089,0.128c-0.034,0.059-0.084,0.135-0.119,0.18c-0.284,0.199-0.388,0.49-0.454,0.673
		c-0.098,0.271-0.262,0.727-1.033,1.218c-1.278,0.814-1.925,1.067-1.926,1.067l-0.126,0.047l-0.109,0.08
		c-0.079,0.058-0.516,0.399-1.373,1.444L28.451,56.398c-0.064,0.079-0.395,0.496-0.558,1.006c-0.084,0.253-1.087,2.512-2.184,4.061
		c-0.154,0.218-0.306,0.437-0.456,0.652c-0.48,0.694-1.275,1.843-1.651,2.003l-0.152-0.041c-0.815-0.214-2.048-0.538-5.764-3.577
		l-0.035-0.028l-0.019-0.016c-3.711-3.048-4.27-4.193-4.641-4.951l-0.069-0.14c0.083-0.4,1.052-1.403,1.637-2.01
		c0.183-0.189,0.369-0.382,0.553-0.578c1.301-1.378,3.321-2.805,3.553-2.938c0.468-0.262,0.812-0.667,0.875-0.745l13.094-15.976
		c0.856-1.046,1.105-1.542,1.146-1.63l0.055-0.123l0.021-0.127c0.001-0.007,0.122-0.691,0.669-2.104
		c0.331-0.853,0.745-1.103,0.991-1.252c0.167-0.101,0.432-0.261,0.571-0.578c0.038-0.043,0.101-0.106,0.15-0.149l2.409-2.919
		l0.027-0.034c0.295-0.395,0.887-0.996,1.229-1.099c0.937-0.284,2.248-1.111,2.394-1.205l0.056-0.039
		c2.456-1.825,10.485-7.791,10.698-7.967c0.131-0.108,0.502-0.469,0.859-0.822l3.108,2.547
		C56.744,16.042,56.462,16.479,56.381,16.63z"/>
</g>
<g id="Layer_7">
</g>
</svg>
