<?xml version="1.0" encoding="utf-8"?>
<!-- Generator: Adobe Illustrator 16.0.0, SVG Export Plug-In . SVG Version: 6.00 Build 0)  -->
<!DOCTYPE svg PUBLIC "-//W3C//DTD SVG 1.1//EN" "http://www.w3.org/Graphics/SVG/1.1/DTD/svg11.dtd">
<svg version="1.1" xmlns="http://www.w3.org/2000/svg" xmlns:xlink="http://www.w3.org/1999/xlink" x="0px" y="0px"
	 width="72.002px" height="72.002px" viewBox="0 0 72.002 72.002" enable-background="new 0 0 72.002 72.002" xml:space="preserve">
<g id="Layer_2">
</g>
<g id="Layer_3">
</g>
<g id="Layer_4">
	<path fill="#EEECAF" stroke="#EEECAF" stroke-width="0.8" stroke-miterlimit="10" d="M61.778,37.001
		c-3.196-14.48-11.775-14.898-12.743-14.898c-0.182,0-0.352,0.009-0.504,0.027l-0.651,0.073c-0.513,0.058-0.975,0.111-1.394,0.166
		c1.354-0.808,3.61-2.825,4.934-4.848c1.614-2.467,1.78-3.852,1.553-6.211c-0.204-2.134,0.412-5.348,0.418-5.38l0.135-0.701
		L52.822,5.35c-1.52,0.263-2.939,0.961-3.604,1.489c-5.999,4.499-5.463,8.48-4.148,11.781c0.689,1.729,0.203,2.671-0.031,3.124
		c-0.002,0.005-0.005,0.01-0.007,0.014c0.061-1.535-0.364-3.682-3.46-4.494c-1.242-0.326-2.597-0.491-4.025-0.491
		c-4.509,0-8.543,1.604-10.068,2.294c-0.213,0.096-5.262,2.426-9.374,7.605c-3.81,4.8-7.457,13.024-3.194,24.944
		c1.312,3.669,4.144,7.247,7.769,9.816c4.487,3.182,10.153,4.864,16.384,4.864h0.078c6.481-0.015,12.822-3.295,17.396-9.001
		C61.31,51.342,63.269,43.756,61.778,37.001z M45.055,22.606c-0.035,0.008-0.072,0.016-0.105,0.024
		c0.006-0.042,0.012-0.084,0.019-0.128C44.985,22.529,45.013,22.568,45.055,22.606z M55.383,56.372
		c-4.292,5.354-10.213,8.432-16.245,8.446l-0.074,0.001c-12.339,0-20.322-6.881-22.759-13.7c-3.231-9.035-2.247-16.935,2.924-23.481
		c3.886-4.919,8.813-7.201,8.861-7.223c1.437-0.65,5.235-2.162,9.458-2.162c1.302,0,2.53,0.149,3.649,0.442
		c2.555,0.67,2.518,2.29,2.242,4.031c-0.028,0.176-0.052,0.336-0.066,0.485c-2.249,0.759-4.144,1.936-4.302,2.152
		c-0.219,0.298-0.063,0.485,0.29,0.593c0.291,0.089,2.552-0.876,4.926-1.551c0.101-0.007,0.205-0.029,0.308-0.07l0.07-0.028
		l0.018-0.011c0.557-0.15,1.114-0.279,1.649-0.372l0.112-0.056c0.532-0.074,1.103-0.139,1.601-0.194l0.656-0.075
		c0.095-0.011,0.211-0.017,0.334-0.017c0.846,0,8.352,0.385,11.298,13.737C61.729,43.642,59.877,50.763,55.383,56.372z"/>
</g>
<g id="Layer_5">
</g>
<g id="Layer_6">
</g>
<g id="Layer_7">
</g>
</svg>
