<?xml version="1.0" encoding="utf-8"?>
<!-- Generator: Adobe Illustrator 16.0.0, SVG Export Plug-In . SVG Version: 6.00 Build 0)  -->
<!DOCTYPE svg PUBLIC "-//W3C//DTD SVG 1.1//EN" "http://www.w3.org/Graphics/SVG/1.1/DTD/svg11.dtd">
<svg version="1.1" xmlns="http://www.w3.org/2000/svg" xmlns:xlink="http://www.w3.org/1999/xlink" x="0px" y="0px"
	 width="71.331px" height="71.331px" viewBox="0 0 71.331 71.331" enable-background="new 0 0 71.331 71.331" xml:space="preserve">
<g id="Layer_2">
</g>
<g id="Layer_3">
</g>
<g id="Layer_4">
</g>
<g id="Layer_5">
	<g>
		<path fill="#EEECAF" stroke="#EEECAF" stroke-width="0.3" stroke-miterlimit="10" d="M56.405,57.904
			c-0.059,0.006-5.906,0.54-8.065-5.939c-0.721-2.164-0.94-4.335-1.134-6.251c-0.434-4.303-0.809-8.019-6.614-8.436
			c-6.359-0.458-14.652-2.185-17.17-2.733l0.014-0.034c-0.427,0.142-0.939,0.153-1.477,0.145l-0.341,0.826l0.755,0.173
			c0.104,0.023,10.474,2.379,18.125,2.93c4.706,0.338,4.97,2.944,5.405,7.261c0.201,1.985,0.428,4.233,1.195,6.535
			c2.119,6.356,7.426,6.843,8.999,6.843c0.274,0,0.435-0.015,0.445-0.016L56.405,57.904z"/>
		<path fill="#EEECAF" stroke="#EEECAF" stroke-width="0.3" stroke-miterlimit="10" d="M56.096,59.262
			c-1.583,0-6.913-0.495-9.038-6.87c-0.768-2.305-0.996-4.557-1.196-6.542c-0.434-4.297-0.695-6.889-5.367-7.225
			c-7.537-0.542-17.701-2.833-18.13-2.931l-0.804-0.184l0.37-0.896l0.028,0c0.081,0.001,0.161,0.002,0.241,0.002
			c0.389,0,0.838-0.018,1.222-0.146l0.084-0.027l-0.029,0.071c2.475,0.537,10.783,2.266,17.117,2.721
			c5.839,0.42,6.216,4.152,6.652,8.473c0.193,1.914,0.412,4.083,1.132,6.243c1.832,5.497,6.327,5.923,7.661,5.923
			c0.229,0,0.359-0.013,0.36-0.013l0.041-0.004l0.145,1.382l-0.04,0.005C56.531,59.248,56.364,59.262,56.096,59.262z M21.673,35.452
			l0.708,0.163c0.431,0.097,10.589,2.387,18.119,2.929c4.741,0.34,5.005,2.959,5.443,7.297c0.2,1.983,0.427,4.229,1.192,6.526
			c2.108,6.323,7.391,6.814,8.96,6.814c0.2,0,0.337-0.008,0.4-0.012l-0.128-1.222c-0.056,0.004-0.167,0.01-0.329,0.01
			c-1.348,0-5.89-0.431-7.739-5.979c-0.723-2.168-0.943-4.343-1.136-6.261c-0.433-4.284-0.806-7.984-6.576-8.399
			c-6.381-0.459-14.761-2.208-17.176-2.734l-0.046-0.01c-0.375,0.108-0.798,0.124-1.166,0.124c-0.071,0-0.143-0.001-0.214-0.002
			L21.673,35.452z"/>
	</g>
	<g>
		<path fill="#EEECAF" stroke="#EEECAF" stroke-width="0.3" stroke-miterlimit="10" d="M44.856,12.228
			c0.688-0.5,1.255-1.268,1.089-2.329c-0.102-0.651-0.441-1.172-0.983-1.506c-1.542-0.953-4.309-0.11-4.619-0.011l0.398,1.247
			c0.953-0.303,2.755-0.604,3.533-0.123c0.217,0.135,0.333,0.318,0.376,0.594c0.163,1.042-1.464,1.506-1.479,1.51l-0.092,0.025
			c0.018,0.031,0.032,0.064,0.039,0.103c0.063,0.374,0.067,0.737-0.027,1.107c0,0.003-0.002,0.005-0.002,0.007l0.088,0.023
			c0.167,0.044,4.084,1.144,2.66,7.077c-1.624,6.764-15.515,9.848-19.315,10.073l0.077,1.307c4.268-0.252,18.72-3.614,20.511-11.074
			C48.184,15.789,46.518,13.326,44.856,12.228z"/>
		<path fill="#EEECAF" stroke="#EEECAF" stroke-width="0.3" stroke-miterlimit="10" d="M26.561,31.377l-0.082-1.389l0.041-0.002
			c1.792-0.106,6.218-0.901,10.46-2.582c3.542-1.403,7.947-3.837,8.817-7.46c1.416-5.897-2.465-6.985-2.63-7.028l-0.13-0.034
			l0.015-0.046l0,0c0,0,0,0.002-0.001,0.005c0.087-0.344,0.096-0.69,0.027-1.094c-0.005-0.03-0.016-0.058-0.034-0.09l-0.027-0.045
			l0.145-0.04c0.016-0.004,1.605-0.459,1.449-1.463c-0.041-0.263-0.152-0.438-0.358-0.565c-0.264-0.164-0.669-0.247-1.204-0.247
			c-0.827,0-1.753,0.202-2.294,0.374l-0.039,0.012l-0.423-1.324l0.039-0.013c0.23-0.073,1.44-0.44,2.698-0.44
			c0.808,0,1.465,0.153,1.955,0.456c0.552,0.341,0.898,0.871,1.002,1.534c0.176,1.13-0.467,1.888-1.059,2.333
			c0.681,0.461,1.584,1.305,2.12,2.738c0.556,1.488,0.591,3.272,0.104,5.303c-0.971,4.043-5.621,6.728-9.351,8.269
			c-4.511,1.862-9.168,2.717-11.198,2.837L26.561,31.377z M26.566,30.064l0.072,1.226c2.045-0.128,6.658-0.982,11.13-2.828
			c3.712-1.533,8.34-4.202,9.302-8.212c0.483-2.015,0.45-3.783-0.1-5.256c-0.541-1.447-1.461-2.284-2.137-2.731l-0.049-0.033
			l0.047-0.035c0.586-0.426,1.248-1.169,1.073-2.29c-0.099-0.639-0.433-1.149-0.964-1.477c-0.476-0.294-1.119-0.443-1.912-0.443
			c-1.187,0-2.331,0.33-2.634,0.425l0.374,1.169c0.552-0.171,1.463-0.365,2.28-0.365c0.55,0,0.97,0.087,1.247,0.258
			c0.229,0.142,0.351,0.334,0.396,0.623c0.168,1.076-1.492,1.551-1.508,1.555l-0.045,0.012c0.01,0.023,0.016,0.046,0.021,0.069
			c0.067,0.397,0.061,0.755-0.02,1.092l0.048,0.013c0.169,0.044,4.124,1.152,2.689,7.126c-0.878,3.657-5.306,6.106-8.866,7.517
			C32.792,29.152,28.39,29.949,26.566,30.064z"/>
	</g>
	<g>
		
			<ellipse fill="#EEECAF" stroke="#EEECAF" stroke-width="0.3" stroke-miterlimit="10" cx="42.921" cy="12.017" rx="1.498" ry="1.037"/>
		<path fill="#EEECAF" stroke="#EEECAF" stroke-width="0.3" stroke-miterlimit="10" d="M42.92,13.095
			c-0.848,0-1.539-0.484-1.539-1.078c0-0.595,0.69-1.078,1.539-1.078s1.539,0.483,1.539,1.078
			C44.459,12.611,43.769,13.095,42.92,13.095z M42.92,11.02c-0.804,0-1.457,0.447-1.457,0.997c0,0.549,0.653,0.996,1.457,0.996
			s1.458-0.447,1.458-0.996C44.378,11.467,43.724,11.02,42.92,11.02z"/>
	</g>
	<path fill="#EEECAF" stroke="#EEECAF" stroke-width="0.3" stroke-miterlimit="10" d="M22.555,35.645H9.049
		c-1.212,0-2.306-0.836-3.25-2.485c-0.63-1.103-0.973-2.191-0.987-2.237l-0.33-1.059H27.12l-0.329,1.059
		c-0.015,0.046-0.356,1.135-0.987,2.237C24.86,34.808,23.767,35.645,22.555,35.645z M6.783,31.497
		c0.529,1.166,1.386,2.515,2.266,2.515h13.505c0.88,0,1.737-1.348,2.266-2.515H6.783z"/>
	<path fill="#EEECAF" stroke="#EEECAF" stroke-width="0.3" stroke-miterlimit="10" d="M47.932,61.602
		c-1.39,0-2.747-0.187-4.034-0.556c-2.56-0.734-4.69-2.127-6.333-4.142c-1.534-1.882-2.641-4.306-3.289-7.206
		c-1.196-5.352-0.823-12.301,1.081-20.097c0.345-1.415,0.666-2.715,0.948-3.863c1.25-5.071,1.939-7.865,2.078-9.504
		c0.123-1.445-0.183-1.693-0.829-2.075c-2.893-1.711-5.547-1.794-6.68-1.831c-0.572-0.018-0.985-0.031-1.241-0.453
		c-0.161-0.264-0.162-0.593-0.005-0.878c0.28-0.511,1.342-1.227,2.21-1.676c0.996-0.515,2.565-1.138,4.387-1.175
		c0.984-0.021,1.878-0.031,2.657-0.031c0.886,0,1.422,0.013,1.69,0.023c0.576-0.258,2.302-0.951,4.188-0.951
		c1.383,0,2.568,0.368,3.522,1.094l0.021,0.017c1.432,1.09,2.378,1.81,2.948,3.485c0.491,1.443,0.695,3.536,0.808,8.291
		c0.089,3.73,0.894,8.842,2.268,14.394c1.236,4.998,2.591,8.991,3.328,10.587c1.516,3.284,2.77,5.651,3.959,6.529
		c0.735,0.542,1.593,0.711,2.106,0.813c0.153,0.03,0.285,0.056,0.398,0.088c0.464,0.132,0.637,0.417,0.699,0.635
		c0.043,0.149,0.082,0.446-0.153,0.758c-0.35,0.466-2.459,2.381-5.359,4.133c-1.729,1.045-3.476,1.877-5.19,2.474
		C51.987,61.226,49.906,61.602,47.932,61.602z M32.535,10.801c1.5,0.167,3.602,0.623,5.851,1.953
		c1.358,0.804,1.783,1.75,1.625,3.619c-0.149,1.768-0.85,4.606-2.12,9.758c-0.282,1.146-0.603,2.446-0.948,3.859
		c-1.844,7.553-2.215,14.245-1.073,19.353c0.593,2.649,1.588,4.846,2.961,6.529c1.428,1.751,3.284,2.963,5.518,3.604
		c1.141,0.328,2.346,0.493,3.584,0.493c4.082,0,7.937-1.799,10.452-3.309c1.744-1.046,3.166-2.146,4.042-2.894
		c-0.543-0.164-1.179-0.424-1.781-0.867c-1.482-1.092-2.763-3.453-4.474-7.16c-0.793-1.719-2.162-5.75-3.431-10.879
		c-0.991-4.007-2.196-9.817-2.314-14.747c-0.121-5.109-0.356-6.73-0.721-7.803c-0.409-1.203-1.071-1.708-2.391-2.712l-0.022-0.016
		c-0.663-0.505-1.515-0.761-2.532-0.761c-1.887,0-3.643,0.864-3.66,0.873l-0.195,0.097l-0.218-0.013
		c-0.004,0-0.525-0.029-1.806-0.029c-0.767,0-1.65,0.01-2.623,0.031C34.812,9.81,33.492,10.3,32.535,10.801z"/>
	<g>
		<path fill="#EEECAF" stroke="#EEECAF" stroke-width="0.3" stroke-miterlimit="10" d="M39.661,57.634
			c-0.019,0.063-0.037,0.127-0.059,0.195c-0.488,1.544-1.421,2.294-2.855,2.294c-1.309,0-2.964-0.623-4.66-1.755
			c-1.695-1.132-2.531-3.342-2.927-4.902c0.828,0.623,1.952,1.355,3.21,1.861c0.945,0.38,2.096,0.573,3.422,0.572
			c1.17,0,2.153-0.15,2.57-0.226l-0.001,0c-0.033,0.002-0.067-0.005-0.103-0.03c-0.389-0.274-0.683-0.702-0.847-1.145
			c-0.001-0.003,0-0.005-0.001-0.008c-0.437,0.052-1.001,0.1-1.618,0.1c-1.158,0-2.145-0.161-2.934-0.478
			c-2.309-0.93-3.303-1.929-3.322-1.947c0,0-1.241-1.096-1.533-0.854c-0.292,0.242-0.169,1.553-0.169,1.553
			c0.021,0.22,0.229,4.392,3.525,6.593c1.105,0.738,3.275,1.976,5.387,1.976l0,0c1.387,0,3.203-0.542,4.06-3.086
			C40.429,58.105,40.058,57.84,39.661,57.634z"/>
		<path fill="#EEECAF" stroke="#EEECAF" stroke-width="0.3" stroke-miterlimit="10" d="M36.747,61.494L36.747,61.494
			c-2.127,0-4.31-1.246-5.421-1.987c-2.98-1.99-3.47-5.559-3.549-6.604c-0.001-0.016-0.002-0.027-0.003-0.034
			c-0.013-0.137-0.117-1.35,0.191-1.605c0.039-0.032,0.09-0.049,0.152-0.049c0.432,0,1.418,0.867,1.46,0.904l0.004,0.003
			c0.106,0.104,1.099,1.046,3.301,1.933c0.782,0.313,1.762,0.473,2.911,0.473c0.521,0,1.063-0.033,1.611-0.099l0.045-0.006
			l0.023,0.054v0.007c0.171,0.457,0.471,0.86,0.822,1.107c0.019,0.013,0.037,0.02,0.057,0.02l0.035-0.002l0.102,0.103l-0.114,0.021
			c-0.378,0.068-1.385,0.226-2.581,0.226c-1.335,0-2.493-0.194-3.445-0.577c-1.009-0.406-2.046-0.999-3.084-1.764
			c0.744,2.797,1.959,4.098,2.857,4.698c1.686,1.125,3.329,1.746,4.626,1.746c1.403,0,2.318-0.736,2.796-2.251
			c0.021-0.065,0.039-0.127,0.057-0.188l0.022-0.076l0.066,0.034c0.295,0.152,0.579,0.34,0.854,0.52
			c0.099,0.065,0.198,0.131,0.298,0.195l0.04,0.025l-0.015,0.046C39.994,60.951,38.145,61.494,36.747,61.494z M28.117,51.337
			c-0.033,0-0.058,0.007-0.074,0.021c-0.219,0.181-0.181,1.144-0.147,1.499c0,0.008,0.001,0.02,0.003,0.036
			c0.078,1.033,0.561,4.553,3.495,6.512c1.1,0.734,3.258,1.966,5.354,1.966l0,0c1.35,0,3.132-0.521,3.986-2.999
			c-0.086-0.056-0.173-0.113-0.259-0.17c-0.251-0.166-0.51-0.336-0.776-0.479c-0.012,0.041-0.024,0.081-0.037,0.124
			c-0.498,1.572-1.45,2.336-2.914,2.336c-1.321,0-2.988-0.627-4.694-1.766c-0.934-0.624-2.204-1.987-2.953-4.938l-0.042-0.168
			l0.139,0.104c1.077,0.81,2.152,1.432,3.197,1.853c0.937,0.377,2.08,0.568,3.396,0.568c1.023,0,1.907-0.117,2.372-0.192
			c-0.337-0.257-0.622-0.648-0.792-1.089c-0.536,0.063-1.066,0.094-1.576,0.094c-1.166,0-2.16-0.162-2.957-0.482
			c-2.224-0.896-3.234-1.853-3.341-1.958C29.221,51.968,28.437,51.337,28.117,51.337z"/>
	</g>
	<path fill="#EEECAF" stroke="#EEECAF" stroke-width="0.3" stroke-miterlimit="10" d="M22.83,31.418H10.239L6.712,8.792h19.893
		L22.83,31.418z M11.638,29.785h9.809l3.23-19.36H8.62L11.638,29.785z"/>
	<g>
		<circle fill="#EEECAF" stroke="#EEECAF" stroke-width="0.3" stroke-miterlimit="10" cx="14.635" cy="6.37" r="1.5"/>
		<path fill="#EEECAF" stroke="#EEECAF" stroke-width="0.3" stroke-miterlimit="10" d="M14.636,7.931
			c-0.861,0-1.562-0.7-1.562-1.561s0.701-1.561,1.562-1.561c0.861,0,1.561,0.7,1.561,1.561S15.497,7.931,14.636,7.931z
			 M14.636,4.932c-0.793,0-1.439,0.646-1.439,1.438s0.646,1.438,1.439,1.438s1.438-0.646,1.438-1.438S15.429,4.932,14.636,4.932z"/>
	</g>
	<g>
		<circle fill="#EEECAF" stroke="#EEECAF" stroke-width="0.3" stroke-miterlimit="10" cx="15.608" cy="25.987" r="1.406"/>
		<path fill="#EEECAF" stroke="#EEECAF" stroke-width="0.3" stroke-miterlimit="10" d="M15.608,27.454
			c-0.809,0-1.467-0.658-1.467-1.467s0.658-1.467,1.467-1.467c0.809,0,1.467,0.658,1.467,1.467S16.417,27.454,15.608,27.454z
			 M15.608,24.643c-0.741,0-1.344,0.604-1.344,1.345s0.603,1.344,1.344,1.344c0.741,0,1.344-0.603,1.344-1.344
			S16.349,24.643,15.608,24.643z"/>
	</g>
	<g>
		<circle fill="#EEECAF" stroke="#EEECAF" stroke-width="0.3" stroke-miterlimit="10" cx="19.459" cy="14.305" r="1.728"/>
		<path fill="#EEECAF" stroke="#EEECAF" stroke-width="0.3" stroke-miterlimit="10" d="M19.459,16.095
			c-0.987,0-1.79-0.803-1.79-1.79s0.803-1.79,1.79-1.79c0.986,0,1.789,0.803,1.789,1.79S20.445,16.095,19.459,16.095z
			 M19.459,12.638c-0.919,0-1.667,0.748-1.667,1.667s0.748,1.668,1.667,1.668c0.919,0,1.667-0.749,1.667-1.668
			S20.378,12.638,19.459,12.638z"/>
	</g>
	<g>
		<circle fill="#EEECAF" stroke="#EEECAF" stroke-width="0.3" stroke-miterlimit="10" cx="17.73" cy="20.551" r="1.188"/>
		<path fill="#EEECAF" stroke="#EEECAF" stroke-width="0.3" stroke-miterlimit="10" d="M17.73,21.8c-0.689,0-1.249-0.56-1.249-1.249
			c0-0.688,0.56-1.249,1.249-1.249c0.688,0,1.249,0.56,1.249,1.249C18.979,21.24,18.419,21.8,17.73,21.8z M17.73,19.425
			c-0.621,0-1.126,0.505-1.126,1.126c0,0.621,0.505,1.127,1.126,1.127s1.126-0.506,1.126-1.127
			C18.856,19.93,18.352,19.425,17.73,19.425z"/>
	</g>
	<g>
		<circle fill="#EEECAF" stroke="#EEECAF" stroke-width="0.3" stroke-miterlimit="10" cx="13.305" cy="16.126" r="1.188"/>
		<path fill="#EEECAF" stroke="#EEECAF" stroke-width="0.3" stroke-miterlimit="10" d="M13.306,17.375
			c-0.689,0-1.25-0.56-1.25-1.249c0-0.688,0.561-1.249,1.25-1.249c0.688,0,1.249,0.56,1.249,1.249
			C14.555,16.815,13.994,17.375,13.306,17.375z M13.306,15c-0.622,0-1.127,0.505-1.127,1.126s0.505,1.126,1.127,1.126
			c0.621,0,1.125-0.505,1.125-1.126S13.927,15,13.306,15z"/>
	</g>
	<g>
		<path fill="#EEECAF" stroke="#EEECAF" stroke-width="0.3" stroke-miterlimit="10" d="M57.246,58.665
			c0.035,0.056,0.555,0.741,0.587,0.804c0.737,1.457,0.722,2.591-0.167,3.658c-0.837,1.007-2.427,1.812-4.397,2.336
			c-1.97,0.523-4.182-0.31-5.613-1.044c1.015-0.209,2.307-0.57,3.519-1.179c0.91-0.458,1.815-1.194,2.692-2.19
			c0.774-0.877,1.311-1.715,1.53-2.077h-0.001c-0.02,0.025-0.048,0.047-0.091,0.057c-0.462,0.111-0.978,0.049-1.419-0.122
			c-0.003,0-0.004-0.002-0.006-0.003c-0.25,0.362-0.587,0.817-0.995,1.28c-0.766,0.87-1.539,1.503-2.298,1.885
			c-2.224,1.119-3.631,1.205-3.657,1.207c0,0-1.643,0.207-1.654,0.585c-0.012,0.379,1.054,1.153,1.054,1.153
			c0.178,0.129,3.445,2.731,7.276,1.713c1.285-0.343,3.648-1.152,5.044-2.736c0,0,0,0,0,0c0.916-1.04,1.266-3.613-0.076-5.936
			C58.144,58.181,57.663,58.503,57.246,58.665z"/>
		<path fill="#EEECAF" stroke="#EEECAF" stroke-width="0.3" stroke-miterlimit="10" d="M51.788,67.026
			c-2.69,0-4.866-1.486-5.469-1.941c-0.012-0.009-0.021-0.016-0.027-0.02c-0.111-0.081-1.091-0.805-1.078-1.205
			c0.013-0.411,1.425-0.609,1.707-0.645h0.005c0.149-0.01,1.514-0.133,3.632-1.2c0.752-0.378,1.519-1.008,2.279-1.871
			c0.343-0.389,0.676-0.818,0.99-1.274l0.029-0.042l0.057,0.025c0.453,0.174,0.957,0.217,1.377,0.117
			c0.024-0.006,0.042-0.017,0.056-0.035l0.018-0.024h0.139l-0.055,0.093c-0.25,0.411-0.781,1.228-1.536,2.085
			c-0.883,1.001-1.794,1.743-2.71,2.204c-0.974,0.49-2.104,0.876-3.363,1.149c1.065,0.529,2.597,1.122,4.114,1.122
			c0.458,0,0.896-0.054,1.3-0.162c2.02-0.537,3.571-1.359,4.367-2.315c0.85-1.021,0.898-2.129,0.158-3.592
			c-0.02-0.037-0.232-0.321-0.373-0.51c-0.125-0.168-0.198-0.266-0.212-0.289l-0.04-0.063l0.07-0.026
			c0.174-0.067,0.356-0.162,0.55-0.263c0.26-0.134,0.53-0.274,0.783-0.347l0.046-0.014l0.024,0.042
			c0.787,1.362,0.919,2.646,0.893,3.482c-0.033,1.033-0.342,1.977-0.824,2.525l-0.019,0.021c-1.408,1.582-3.77,2.392-5.056,2.734
			C53.028,66.946,52.411,67.026,51.788,67.026z M53.902,58.98c-0.309,0.445-0.635,0.865-0.971,1.246
			c-0.771,0.875-1.55,1.514-2.317,1.9c-2.14,1.076-3.527,1.201-3.678,1.212c-0.78,0.099-1.593,0.323-1.6,0.527
			c-0.009,0.285,0.739,0.892,1.028,1.102c0.006,0.004,0.016,0.012,0.029,0.021c0.595,0.45,2.743,1.917,5.395,1.917
			c0.612,0,1.219-0.079,1.802-0.234c1.278-0.34,3.629-1.146,5.014-2.718l0.018-0.021c0.454-0.53,0.744-1.435,0.776-2.428
			c0.026-0.812-0.102-2.053-0.853-3.375c-0.229,0.073-0.476,0.201-0.715,0.325c-0.163,0.084-0.331,0.171-0.49,0.238
			c0.041,0.055,0.103,0.139,0.164,0.221c0.218,0.292,0.363,0.488,0.383,0.528c0.766,1.513,0.712,2.662-0.173,3.725
			c-0.813,0.977-2.386,1.813-4.43,2.356c-0.415,0.11-0.863,0.166-1.332,0.166c-1.617,0-3.245-0.66-4.325-1.214l-0.155-0.079
			l0.17-0.036c1.317-0.272,2.496-0.667,3.503-1.174c0.903-0.454,1.802-1.186,2.674-2.176c0.658-0.747,1.145-1.464,1.421-1.903
			C54.827,59.188,54.343,59.143,53.902,58.98z"/>
	</g>
</g>
<g id="Layer_6">
</g>
<g id="Layer_7">
</g>
</svg>
