<?xml version="1.0" encoding="utf-8"?>
<!-- Generator: Adobe Illustrator 16.0.0, SVG Export Plug-In . SVG Version: 6.00 Build 0)  -->
<!DOCTYPE svg PUBLIC "-//W3C//DTD SVG 1.1//EN" "http://www.w3.org/Graphics/SVG/1.1/DTD/svg11.dtd">
<svg version="1.1" id="Layer_1" xmlns="http://www.w3.org/2000/svg" xmlns:xlink="http://www.w3.org/1999/xlink" x="0px" y="0px"
	 width="509.231px" height="486.154px" viewBox="0 0 509.231 486.154" enable-background="new 0 0 509.231 486.154"
	 xml:space="preserve">
<g>
	<defs>
		<rect id="SVGID_1_" width="509.231" height="486.154"/>
	</defs>
	<clipPath id="SVGID_2_">
		<use xlink:href="#SVGID_1_"  overflow="visible"/>
	</clipPath>
	<path clip-path="url(#SVGID_2_)" fill="#EEE8AE" d="M340.945,173.247c-0.242-0.361-0.81-1.207-7.384-6.497
		c-6.518-5.44-7.458-5.83-7.863-5.999c-1.946-0.804-4.248-0.152-5.672,1.586c-0.624,0.761-1.008,1.307-1.258,1.806
		c-0.291,0.383-1.04,1.292-1.887,2.302c-1.122-0.052-2.164,0.458-2.896,1.35l-3.556,4.339l1.919,1.573
		c-1.036,1.021-1.904,1.865-2.109,2.039c-0.827,0.652-20.079,14.967-32.875,24.475c-1.06,0.668-4.104,2.467-5.846,2.994
		c-3.286,0.993-6.184,4.631-6.839,5.503l-6.938,8.465c-0.677,0.617-1.116,1.151-1.402,1.589c-1.229,0.754-3.691,2.43-5.354,6.721
		c-1.476,3.801-2.074,6.143-2.295,7.164c-0.291,0.482-1.04,1.627-2.621,3.557l-40.61,49.55c-0.104,0.127-0.6,0.65-1.002,0.875
		c-1.214,0.678-7.945,5.455-12.453,10.229c-0.556,0.591-1.117,1.172-1.669,1.743c-4.295,4.451-8.352,8.655-6.201,12.928l0.266,0.538
		c1.458,2.987,3.456,7.078,16.011,17.39l0.135,0.11c12.541,10.256,16.943,11.411,20.157,12.256l0.584,0.154
		c0.462,0.127,0.938,0.192,1.417,0.192c3.943,0,6.772-4.088,10.047-8.822c0.451-0.649,0.909-1.312,1.375-1.969
		c3.801-5.367,7.161-12.898,7.587-14.221c0.122-0.382,0.465-0.912,0.661-1.156l40.606-49.548c1.597-1.949,2.576-2.908,2.967-3.268
		c0.954-0.416,3.134-1.463,6.579-3.658c3.884-2.479,5.042-5.223,5.539-6.574c0.37-0.366,0.808-0.9,1.279-1.683l6.939-8.468
		c0.727-0.815,3.724-4.368,4.055-7.787c0.173-1.815,1.312-5.085,1.785-6.32c6.81-14.416,17.066-36.104,17.518-36.999
		c0.147-0.266,0.809-1.293,1.608-2.511l1.534,1.257l3.555-4.337c0.633-0.772,0.928-1.715,0.833-2.655
		c-0.016-0.152-0.041-0.302-0.077-0.45c0.821-1.027,1.564-1.938,1.884-2.301c0.443-0.343,0.903-0.826,1.524-1.587
		C341.969,177.339,342.142,175.032,340.945,173.247 M324.356,188.871c-0.398,0.746-13.651,28.794-17.704,37.373l-0.084,0.196
		c-0.194,0.502-1.912,4.994-2.202,8.013c-0.106,1.102-1.573,3.266-2.589,4.4l-7.219,8.805l-0.276,0.398
		c-0.106,0.184-0.263,0.417-0.37,0.559c-0.879,0.617-1.203,1.519-1.409,2.087c-0.303,0.843-0.811,2.253-3.201,3.777
		c-3.964,2.527-5.972,3.311-5.975,3.312l-0.393,0.145l-0.337,0.247c-0.245,0.18-1.601,1.237-4.257,4.479l-40.605,49.547
		c-0.2,0.243-1.224,1.54-1.732,3.119c-0.26,0.784-3.371,7.792-6.773,12.594c-0.478,0.677-0.949,1.355-1.412,2.023
		c-1.489,2.154-3.954,5.715-5.12,6.211l-0.471-0.126c-2.529-0.664-6.351-1.668-17.878-11.093l-0.106-0.086l-0.058-0.048
		c-11.511-9.453-13.244-13.005-14.392-15.356l-0.215-0.435c0.258-1.24,3.26-4.353,5.076-6.233c0.567-0.588,1.143-1.185,1.715-1.791
		c4.035-4.273,10.299-8.701,11.018-9.111c1.45-0.812,2.519-2.068,2.716-2.312l40.607-49.547c2.658-3.243,3.428-4.781,3.555-5.057
		l0.171-0.379l0.065-0.394c0.005-0.021,0.378-2.143,2.078-6.524c1.025-2.646,2.309-3.42,3.074-3.884
		c0.518-0.312,1.338-0.808,1.77-1.792c0.117-0.132,0.312-0.327,0.467-0.463l7.472-9.053l0.083-0.106
		c0.917-1.223,2.751-3.087,3.811-3.407c2.904-0.879,6.97-3.445,7.424-3.735l0.175-0.12c7.616-5.659,32.517-24.162,33.179-24.708
		c0.406-0.337,1.559-1.456,2.665-2.548l9.638,7.899C325.481,187.048,324.608,188.401,324.356,188.871"/>
</g>
</svg>
