<?xml version="1.0" encoding="utf-8"?>
<!-- Generator: Adobe Illustrator 16.0.0, SVG Export Plug-In . SVG Version: 6.00 Build 0)  -->
<!DOCTYPE svg PUBLIC "-//W3C//DTD SVG 1.1//EN" "http://www.w3.org/Graphics/SVG/1.1/DTD/svg11.dtd">
<svg version="1.1" id="Layer_1" xmlns="http://www.w3.org/2000/svg" xmlns:xlink="http://www.w3.org/1999/xlink" x="0px" y="0px"
	 width="509.231px" height="486.154px" viewBox="0 0 509.231 486.154" enable-background="new 0 0 509.231 486.154"
	 xml:space="preserve">
<g>
	<defs>
		<rect id="SVGID_1_" width="509.231" height="486.154"/>
	</defs>
	<clipPath id="SVGID_2_">
		<use xlink:href="#SVGID_1_"  overflow="visible"/>
	</clipPath>
	<path clip-path="url(#SVGID_2_)" fill="#EEE8AE" d="M344.394,254.743c-10.62-48.124-39.132-49.513-42.349-49.513
		c-0.605,0-1.17,0.03-1.677,0.089l-2.165,0.245c-1.704,0.191-3.24,0.368-4.632,0.55c4.501-2.684,12-9.389,16.399-16.111
		c5.361-8.2,5.913-12.802,5.162-20.643c-0.679-7.092,1.365-17.774,1.387-17.881l0.452-2.331l-2.34,0.405
		c-5.053,0.873-9.771,3.192-11.979,4.948c-19.937,14.951-18.156,28.182-13.785,39.152c2.289,5.745,0.673,8.879-0.103,10.384
		c-0.008,0.016-0.017,0.032-0.024,0.047c0.205-5.102-1.208-12.236-11.499-14.936c-4.128-1.083-8.628-1.632-13.375-1.632
		c-14.989,0-28.392,5.332-33.461,7.625c-0.708,0.322-17.488,8.063-31.153,25.277c-12.662,15.952-24.782,43.282-10.616,82.898
		c4.36,12.194,13.77,24.086,25.817,32.628c14.912,10.572,33.742,16.161,54.452,16.161h0.258
		c21.541-0.048,42.613-10.951,57.812-29.914C342.836,302.404,349.348,277.19,344.394,254.743 M288.816,206.905
		c-0.116,0.026-0.239,0.051-0.35,0.077c0.019-0.137,0.039-0.281,0.058-0.426C288.583,206.649,288.678,206.776,288.816,206.905
		 M323.14,319.116c-14.264,17.795-33.941,28.027-53.986,28.072h-0.247c-41.006,0-67.536-22.866-75.639-45.528
		c-10.737-30.025-7.466-56.281,9.72-78.037c12.915-16.347,29.288-23.931,29.448-24.003c4.776-2.161,17.4-7.188,31.432-7.188
		c4.326,0,8.406,0.495,12.127,1.472c8.489,2.227,8.368,7.607,7.45,13.395c-0.093,0.584-0.173,1.117-0.222,1.613
		c-7.472,2.523-13.771,6.433-14.298,7.151c-0.727,0.991-0.209,1.613,0.965,1.973c0.966,0.295,8.481-2.911,16.371-5.155
		c0.337-0.023,0.682-0.096,1.024-0.233l0.233-0.093l0.058-0.038c1.853-0.497,3.704-0.928,5.48-1.235l0.376-0.186
		c1.766-0.247,3.665-0.46,5.318-0.646l2.183-0.247c0.315-0.037,0.7-0.056,1.111-0.056c2.812,0,27.755,1.281,37.547,45.656
		C344.229,276.81,338.078,300.479,323.14,319.116"/>
</g>
</svg>
