<?xml version="1.0" encoding="utf-8"?>
<!-- Generator: Adobe Illustrator 16.0.0, SVG Export Plug-In . SVG Version: 6.00 Build 0)  -->
<!DOCTYPE svg PUBLIC "-//W3C//DTD SVG 1.1//EN" "http://www.w3.org/Graphics/SVG/1.1/DTD/svg11.dtd">
<svg version="1.1" id="Layer_1" xmlns="http://www.w3.org/2000/svg" xmlns:xlink="http://www.w3.org/1999/xlink" x="0px" y="0px"
	 width="509.231px" height="486.154px" viewBox="0 0 509.231 486.154" enable-background="new 0 0 509.231 486.154"
	 xml:space="preserve">
<g>
	<defs>
		<rect id="SVGID_1_" width="509.231" height="486.154"/>
	</defs>
	<clipPath id="SVGID_2_">
		<use xlink:href="#SVGID_1_"  overflow="visible"/>
	</clipPath>
	<path clip-path="url(#SVGID_2_)" fill="#EFEAB0" d="M342.856,138.968c-0.165-1.389-1.103-2.373-2.783-2.924
		c-0.889-0.292-2.07-0.433-3.61-0.433c-6.334,0-17.685,2.312-25.715,6.181c-10.309,4.97-13.637,9.243-17.615,17.549
		c-3.057,6.379-9.865,14.276-11.324,15.936c-1.8-0.486-4.561-0.993-8.853-1.78c-6.551-1.201-13.123-0.178-18.22,2.845
		c-6.023,3.573-11.701,9.718-12.927,13.988c-0.115,0.401-0.234,0.834-0.361,1.296c-1.603,5.853-4.287,15.649-17.285,21.509
		c-10.749,4.845-18.764,10.742-25.224,18.559c-5.001,6.05-9.842,14.63-14,24.812c-3.093,7.571-3.414,14.331-3.477,20.608
		c-0.118,11.771,2.906,21.378,6.014,30.209c1.046,2.97,2.853,6.317,4.766,9.861c2.37,4.389,4.82,8.927,6.14,13.243
		c1.347,4.402,1.316,8.636,1.288,12.37c-0.016,2.242-0.03,4.179,0.263,5.877c1.738,10.085,11.465,16.978,16.192,17.844
		c0.916,0.168,2.144,0.253,3.65,0.253c6.477,0,18.836-1.57,24.068-7.454c4.344-4.886,15.035-9.325,27.902-11.588
		c1.615-0.284,39.69-7.479,51.077-52.769c3.799-15.109,1.835-32.21-5.529-48.149c-3.244-7.023-8.098-12.8-12.379-17.897
		c-1.77-2.107-3.441-4.097-4.805-5.952c-3.13-4.265-4.459-8.196-5.253-10.545c-0.174-0.517-0.324-0.956-0.456-1.302
		c-1.157-3.033-0.699-6.422-0.169-10.347c0.562-4.167,1.2-8.89-0.302-13.729c-0.511-1.644-1.435-3.143-2.525-4.472
		c1.331,0.163,2.646,0.258,3.89,0.258c0.912,0,1.75-0.049,2.407-0.136c28.862-2.931,35.042-17.257,37.282-30.885
		c1.053-6.399,4.154-8.312,5.644-9.231C341.432,142.078,343.104,141.045,342.856,138.968 M295.273,226.513
		c1.479,2.014,3.212,4.077,5.046,6.26c4.04,4.809,8.619,10.26,11.527,16.555c6.791,14.699,8.622,30.386,5.156,44.17
		c-8.359,33.251-33.939,46.148-46.297,48.322c-6.891,1.212-23.738,4.954-31.347,13.51c-3.337,3.753-13.461,5.441-19.584,5.441
		c-1.557,0-2.315-0.108-2.568-0.154c-2.879-0.528-10.157-5.972-11.361-12.961c-0.202-1.171-0.19-2.859-0.176-4.815
		c0.029-3.959,0.065-8.887-1.55-14.168c-1.494-4.888-4.206-9.909-6.598-14.339c-1.799-3.331-3.497-6.477-4.386-9.003
		c-2.93-8.327-5.782-17.36-5.674-28.157c0.058-5.695,0.339-11.808,3.031-18.399c3.932-9.627,8.452-17.669,13.071-23.258
		c5.934-7.18,13.047-12.396,23.064-16.912c15.574-7.02,18.848-18.972,20.607-25.393c0.12-0.436,0.232-0.845,0.341-1.225
		c0.623-2.172,4.915-7.336,10.222-10.484c2.764-1.638,6.132-2.505,9.741-2.505c1.426,0,2.884,0.135,4.336,0.401
		c4.62,0.847,6.901,1.322,8.028,1.584c0.234,0.231,0.52,0.437,0.862,0.604c1.684,0.91,6.451,4.064,7.434,7.231
		c1.109,3.573,0.612,7.253,0.086,11.148c-0.587,4.341-1.192,8.829,0.509,13.289c0.11,0.289,0.233,0.654,0.379,1.085
		C290.019,216.841,291.593,221.498,295.273,226.513"/>
</g>
</svg>
