<?xml version="1.0" encoding="utf-8"?>
<!-- Generator: Adobe Illustrator 16.0.0, SVG Export Plug-In . SVG Version: 6.00 Build 0)  -->
<!DOCTYPE svg PUBLIC "-//W3C//DTD SVG 1.1//EN" "http://www.w3.org/Graphics/SVG/1.1/DTD/svg11.dtd">
<svg version="1.1" id="Layer_1" xmlns="http://www.w3.org/2000/svg" xmlns:xlink="http://www.w3.org/1999/xlink" x="0px" y="0px"
	 width="509.231px" height="486.154px" viewBox="0 0 509.231 486.154" enable-background="new 0 0 509.231 486.154"
	 xml:space="preserve">
<g>
	<defs>
		<rect id="SVGID_1_" width="509.231" height="486.154"/>
	</defs>
	<clipPath id="SVGID_2_">
		<use xlink:href="#SVGID_1_"  overflow="visible"/>
	</clipPath>
	<path clip-path="url(#SVGID_2_)" fill="#EEE8AE" d="M382.511,279.183c0.036-0.088,0.058-0.179,0.085-0.269
		c0.025-0.081,0.058-0.158,0.076-0.242c0.038-0.173,0.061-0.349,0.067-0.526c0.001-0.039-0.006-0.08-0.006-0.119
		c0-0.143-0.003-0.285-0.023-0.425c-0.001-0.005,0-0.01-0.001-0.014c-0.012-0.077-0.037-0.147-0.055-0.223
		c-0.021-0.097-0.038-0.196-0.07-0.291c-0.051-0.15-0.115-0.29-0.187-0.426c-0.012-0.023-0.019-0.046-0.03-0.069
		c0-0.001-0.001-0.002-0.001-0.002c-0.089-0.16-0.191-0.311-0.307-0.451c-0.041-0.05-0.091-0.09-0.135-0.137
		c-0.077-0.083-0.151-0.167-0.237-0.24c-0.059-0.05-0.125-0.091-0.188-0.136l0.006-0.009
		c-18.443-13.417-31.322-14.062-42.685-14.631c-3.61-0.183-7.042-0.359-10.478-0.948c-10.72-8.39-18.421-19.409-26.336-30.734
		c-18.521-26.5-39.513-56.536-103.409-56.536c-1.658,0-3,1.343-3,3c0,1.656,1.342,3,3,3c9.563,0,17.587,13.817,27.745,31.309
		c3.98,6.855,8.269,14.237,13.127,21.631c-23.865-0.939-44.181,4.497-59.845,8.691c-13.392,3.587-23.972,6.42-29.476,3.312
		c-1.359-0.768-3.084-0.365-3.96,0.931c-0.877,1.295-0.611,3.045,0.61,4.022c5.136,4.113,9.503,8.034,13.725,11.827
		c9.706,8.716,17.854,16.045,28.577,18.832c-14.659,6.721-29.729,16.193-45.614,28.594c-1.259,0.983-1.527,2.78-0.61,4.087
		c0.919,1.31,2.7,1.668,4.052,0.818c3.661-2.3,7.888-3.417,12.924-3.417c8.652,0,19.07,3.24,31.132,6.995
		c17.423,5.421,39.106,12.167,65.429,12.167c40.242,0,81.164-15.736,125.104-48.109c0.004-0.002,0.006-0.005,0.009-0.007
		c0.12-0.088,0.226-0.19,0.33-0.293c0.024-0.026,0.056-0.046,0.079-0.072c0.079-0.085,0.145-0.18,0.213-0.273
		c0.106-0.145,0.198-0.298,0.276-0.457C382.453,279.289,382.487,279.239,382.511,279.183 M369.084,274.733
		c-12.035-0.88-21.707-3.642-29.789-7.729C348.052,267.449,357.121,268.078,369.084,274.733 M200.231,274.49
		c-14.525,0.572-22.939-7.018-35.697-18.475c-1.787-1.606-3.678-3.306-5.682-5.062c6.144-0.437,13.534-2.416,22.327-4.77
		c16.95-4.54,37.786-10.111,62.507-8.292c8.363,11.843,18.4,23.335,31.202,32.332c-9.933-2.04-20.248-3.521-31.241-3.521
		c-14.428,0-28.759,2.618-43.407,8.007L200.231,274.49z M256.415,322.555c-25.411,0-46.611-6.597-63.645-11.896
		c-12.531-3.899-23.352-7.266-32.916-7.266h-0.201c29.839-20.883,56.817-30.691,83.994-30.691c17.687,0,33.858,4.052,49.497,7.971
		c0.778,0.194,1.558,0.391,2.339,0.585c10.433,4.032,22.316,6.509,35.975,6.799c3.223,0.271,6.48,0.426,9.781,0.426
		c7.263,0,14.362-0.725,21.415-2.193C325.557,310.665,290.658,322.555,256.415,322.555"/>
</g>
</svg>
