<?xml version="1.0" encoding="utf-8"?>
<!-- Generator: Adobe Illustrator 16.0.0, SVG Export Plug-In . SVG Version: 6.00 Build 0)  -->
<!DOCTYPE svg PUBLIC "-//W3C//DTD SVG 1.1//EN" "http://www.w3.org/Graphics/SVG/1.1/DTD/svg11.dtd">
<svg version="1.1" id="Layer_1" xmlns="http://www.w3.org/2000/svg" xmlns:xlink="http://www.w3.org/1999/xlink" x="0px" y="0px"
	 width="509.231px" height="486.154px" viewBox="0 0 509.231 486.154" enable-background="new 0 0 509.231 486.154"
	 xml:space="preserve">
<g>
	<defs>
		<rect id="SVGID_1_" width="509.231" height="486.154"/>
	</defs>
	<clipPath id="SVGID_2_">
		<use xlink:href="#SVGID_1_"  overflow="visible"/>
	</clipPath>
	<path clip-path="url(#SVGID_2_)" fill="#EFEAB0" d="M345.43,199.725l3.298-5.058l-6.022,0.426
		c-0.753,0.054-18.518,1.322-25.553,2.751c-8.15,1.655-13.112,4.985-21.151,11.822c-2.573,2.188-5.072,5.452-7.217,9.18
		c1.199-8.548,0.971-19.141-3.156-29.152c-5.822-14.123-16.034-18.181-23.491-21.144c-2.925-1.163-5.451-2.166-6.985-3.485
		c-6.322-5.436-9.812-8.454-9.814-8.455l-3.285-2.838l-1.494,4.075c-0.056,0.154-5.664,15.434-9.203,23.405
		c-4.009,9.034-3.978,15.076-1.85,28.647c0.977,6.228,4.373,13.877,9.208,20.875c-5.579-2.84-12.441-4.897-19.956-4.518
		c-12.712,0.636-19.347,8.12-24.191,13.584c-1.883,2.125-3.51,3.958-4.998,4.844c-5.885,3.495-9.928,4.986-9.964,5l-4.472,1.619
		l3.387,3.339c0.101,0.099,10.155,10.019,14.774,15.428c5.424,6.353,10.004,8.224,21.012,10.621c1.718,0.373,3.66,0.562,5.771,0.562
		c2.947,0,6.152-0.364,9.353-1.027c-4.006,3.945-7.72,8.721-10.392,14.321c-6.256,13.117-2.692,22.687-0.089,29.672
		c1.007,2.701,1.876,5.034,1.913,6.881c0.131,6.698-1.377,10.212-1.45,10.377l-3.141,6.54l6.858-2.435c0,0,16.274-5.772,24.23-8.599
		c8.824-3.135,13.029-7.064,21.189-17.279c4.163-5.216,7.682-13.564,9.414-22.335c0.207-1.049,0.417-2.257,0.592-3.554
		c2.674,6.963,7.417,14.826,15.136,20.364c5.864,4.207,12.273,6.252,19.591,6.252c3.72,0,7.039-0.505,9.97-0.95
		c2.389-0.364,4.383-0.678,5.862-0.569c5.89,0.437,8.236,1.702,8.466,1.833l5.046,3.562l-0.378-6.234
		c-0.01-0.153-0.937-15.402-1.491-22.94c-0.633-8.598-3.243-13.056-10.769-22.085c-4.214-5.055-12.095-9.799-19.851-12.482
		c7.606-1.853,18.569-6.79,25.479-16.625c6.829-9.722,5.847-18.143,5.057-24.91c-0.361-3.096-0.673-5.77-0.135-7.92
		C342.084,204.926,345.398,199.773,345.43,199.725 M283.781,246.037c2.259,3.612,5.158,4.151,6.686,4.151
		c1.264,0,2.503-0.354,3.581-1.022c2.058-1.274,3.021-3.396,3.724-4.945c0.146-0.318,0.285-0.632,0.433-0.923
		c0.137-0.271,0.357-0.587,0.529-0.587c0.126,0,0.365,0.08,0.622,0.306c0.357,0.313,0.58,0.624,0.581,0.808
		c0.002,0.297-0.348,1.12-1.676,2.32c-2.588,2.34-3.559,5.695-2.598,8.979c0.354,1.208,0.947,2.303,1.717,3.231
		c-2.137,0.132-3.953,0.612-5.368,1.477c-4.673,2.859-5.221,7.479-3.35,10.561c1.295,2.14,3.403,3.123,5.099,3.914
		c0.336,0.156,0.665,0.309,0.976,0.47c0.395,0.203,0.66,0.446,0.694,0.634c0.032,0.174-0.067,0.498-0.365,0.829
		c-0.177,0.198-0.625,0.657-0.976,0.657c-0.42,0-1.34-0.483-2.546-1.844c-1.788-2.018-4.196-3.129-6.78-3.129
		c-3.819,0-7.242,2.392-8.557,5.771c-0.132-0.158-0.253-0.326-0.396-0.472c-2.232-2.287-4.528-2.768-6.062-2.768
		c-1.988,0-3.902,0.785-5.389,2.211c-1.891,1.812-2.545,4.162-3.069,6.052c-0.111,0.396-0.218,0.782-0.336,1.153
		c-0.172,0.535-0.583,1.434-1.417,1.434c-0.213,0-0.437-0.058-0.651-0.166c-0.395-0.2-0.663-0.425-0.699-0.583
		c-0.085-0.367,0.162-1.51,1.631-3.451c2.346-3.108,2.806-6.854,1.229-10.019c-1.614-3.24-4.984-5.143-8.671-4.754
		c-0.235,0.025-0.511,0.076-0.806,0.141c1.348-4.758-0.985-8.091-3.929-9.235c-0.811-0.317-1.706-0.478-2.658-0.478
		c-1.332,0-2.559,0.301-3.641,0.566c-0.347,0.085-0.686,0.169-1.014,0.235c-0.336,0.068-0.641,0.041-0.679-0.001
		c-0.055-0.061-0.187-0.323-0.141-0.821c0.105-1.154,0.35-1.489,1.769-1.489c0.453,0,0.976,0.055,1.554,0.16
		c3.636,0.673,7.237-0.954,9.217-4.122c1.255-2.009,1.709-4.369,1.337-6.555c1.384,0.593,2.79,0.956,4.178,0.956l0.213-0.003
		c5.775-0.149,8.722-4.28,8.647-8.282c-0.048-2.734-1.434-4.904-2.547-6.647c-0.236-0.37-0.468-0.731-0.676-1.087
		c-0.282-0.482-0.572-1.182-0.355-1.777c0.144-0.393,0.507-0.719,0.998-0.894c0.341-0.122,0.65-0.187,0.893-0.187
		c0.958,0,1.675,2.019,2.025,3.908c1.066,5.751,5.535,8.325,9.491,8.325h0.001c2.362,0,4.562-0.882,6.244-2.438
		C282.035,240.411,282.361,243.767,283.781,246.037 M236.84,183.686c2.503-5.638,5.906-14.548,7.844-19.715
		c1.623,1.398,3.826,3.296,6.556,5.643c2.296,1.974,5.398,3.207,8.682,4.512c7.174,2.851,15.306,6.082,20.159,17.855
		c7.427,18.017,0.426,37.615-1.286,39.835c-0.603,0.78-1.529,1.228-2.543,1.228c-1.43,0-3.124-0.898-3.592-3.419
		c-1.424-7.669-5.576-8.814-7.925-8.814c-0.935,0-1.913,0.18-2.909,0.536c-2.179,0.777-3.861,2.414-4.618,4.49
		c-0.792,2.173-0.504,4.609,0.812,6.859c0.246,0.421,0.52,0.851,0.799,1.289c0.78,1.222,1.588,2.485,1.606,3.526
		c0.014,0.786-0.331,2.112-2.803,2.176l-0.06,0.001c-6.269,0-20.099-17.758-22.13-30.718
		C233.325,195.531,233.575,191.041,236.84,183.686 M215.581,274.828c-10.561-2.3-13.543-3.755-17.725-8.654
		c-3.165-3.705-8.573-9.239-11.996-12.684c1.807-0.869,4.115-2.069,6.773-3.647c2.292-1.363,4.299-3.626,6.423-6.022
		c4.597-5.185,9.806-11.062,20.001-11.571c0.489-0.025,0.977-0.036,1.459-0.036c14.836,0,25.829,10.975,26.761,12.888
		c0.416,0.852,0.291,2.032-0.318,3.006c-0.34,0.545-1.11,1.459-2.445,1.459c-0.191,0-0.391-0.02-0.594-0.057
		c-0.936-0.174-1.826-0.261-2.643-0.261c-4.453,0-7.348,2.597-7.744,6.943c-0.189,2.059,0.425,4.031,1.683,5.411
		c1.509,1.653,3.83,2.337,6.298,1.839c0.406-0.082,0.827-0.186,1.257-0.29c1.054-0.259,2.23-0.506,2.693-0.326
		c0.596,0.232,0.654,1.271,0.145,2.585c-1.632,4.206-14.554,9.842-25.533,9.842C218.392,275.252,216.88,275.11,215.581,274.828
		 M263.857,315.959c-8.064,10.098-11.351,12.826-18.509,15.368c-5.048,1.794-13.446,4.775-18.909,6.713
		c0.284-1.902,0.474-4.256,0.42-7.06c-0.058-2.867-1.142-5.777-2.289-8.857c-2.475-6.642-5.28-14.172-0.118-24.994
		c7.931-16.629,25.946-24.555,28.558-24.833c0.102-0.011,0.205-0.016,0.305-0.016c1.001,0,1.906,0.567,2.361,1.479
		c0.555,1.114,0.325,2.438-0.646,3.726c-2.388,3.161-3.268,5.914-2.689,8.418c0.315,1.364,1.235,3.265,3.827,4.581
		c1.051,0.535,2.215,0.818,3.37,0.818c3.294,0,6.026-2.149,7.131-5.604c0.141-0.438,0.27-0.901,0.401-1.374
		c0.381-1.365,0.739-2.654,1.443-3.329c0.17-0.163,0.63-0.543,1.235-0.543c0.688,0,1.341,0.522,1.768,0.959
		C275.047,285.028,272.045,305.705,263.857,315.959 M325.377,276.888c7.232,8.681,8.9,11.998,9.393,18.684
		c0.363,4.924,0.885,13.171,1.205,18.299c-1.648-0.393-3.76-0.746-6.42-0.942c-2.05-0.149-4.436,0.197-7.209,0.619
		c-2.719,0.414-5.801,0.884-9.066,0.884c-6.104,0-11.218-1.629-16.093-5.127c-13.269-9.521-15.933-26.638-15.518-28.987
		c0.232-1.32,1.622-2.395,3.095-2.395c0.868,0,1.638,0.373,2.29,1.107c2.272,2.565,4.64,3.865,7.036,3.865
		c1.401,0,3.483-0.461,5.447-2.656c1.52-1.697,2.175-3.854,1.795-5.916s-1.744-3.796-3.84-4.878
		c-0.379-0.196-0.783-0.385-1.195-0.578c-1.009-0.47-2.151-1.003-2.504-1.586c-0.618-1.019,0.877-2.042,1.349-2.331
		c0.399-0.244,1.37-0.654,3.384-0.654C306.779,264.295,320.079,270.534,325.377,276.888 M334.715,209.651
		c-0.805,3.214-0.416,6.546-0.004,10.073c0.741,6.35,1.507,12.916-4.007,20.766c-8.023,11.418-22.432,14.965-26.772,14.965
		c-0.307,0-0.439-0.021-0.453-0.022c-0.927-0.154-1.753-0.957-2.058-1.996c-0.218-0.743-0.245-1.839,0.864-2.841
		c2.439-2.207,3.669-4.5,3.651-6.816c-0.01-1.364-0.473-3.386-2.624-5.273c-1.32-1.158-2.946-1.796-4.579-1.796
		c-2.495,0-4.641,1.416-5.888,3.886c-0.182,0.363-0.359,0.749-0.538,1.144c-0.427,0.943-0.912,2.012-1.421,2.327
		c-0.073,0.045-0.225,0.121-0.42,0.121c-0.48,0-1.077-0.498-1.599-1.331c-2.53-4.049,2.72-21.561,11.02-28.621
		c8.299-7.058,12.095-9.22,18.459-10.512c4.328-0.879,13.43-1.728,19.316-2.218C336.615,203.744,335.488,206.567,334.715,209.651"/>
	<path clip-path="url(#SVGID_2_)" fill="#EFEAB0" d="M257.025,257.51c0,8.509,6.898,15.409,15.411,15.409
		c8.511,0,15.408-6.9,15.408-15.409c0-8.512-6.897-15.412-15.408-15.412C263.924,242.098,257.025,248.999,257.025,257.51"/>
</g>
</svg>
