<?xml version="1.0" encoding="utf-8"?>
<!-- Generator: Adobe Illustrator 16.0.0, SVG Export Plug-In . SVG Version: 6.00 Build 0)  -->
<!DOCTYPE svg PUBLIC "-//W3C//DTD SVG 1.1//EN" "http://www.w3.org/Graphics/SVG/1.1/DTD/svg11.dtd">
<svg version="1.1" xmlns="http://www.w3.org/2000/svg" xmlns:xlink="http://www.w3.org/1999/xlink" x="0px" y="0px"
	 width="71.667px" height="71.667px" viewBox="0 0 71.667 71.667" enable-background="new 0 0 71.667 71.667" xml:space="preserve">
<g id="Layer_2">
</g>
<g id="Layer_3">
</g>
<g id="Layer_4">
</g>
<g id="Layer_5">
</g>
<g id="Layer_6">
	<path fill="#EEECAF" stroke="#EEECAF" stroke-width="0.3" stroke-miterlimit="10" d="M65.023,41.109
		c0.008-0.02,0.013-0.04,0.02-0.061c0.005-0.018,0.013-0.036,0.017-0.055c0.009-0.039,0.014-0.079,0.015-0.119
		c0-0.009-0.001-0.019-0.001-0.027c0-0.032-0.001-0.064-0.005-0.096c0-0.001,0-0.002,0-0.003c-0.003-0.018-0.008-0.034-0.012-0.051
		c-0.005-0.021-0.008-0.044-0.016-0.066c-0.012-0.034-0.026-0.065-0.042-0.096c-0.002-0.005-0.004-0.01-0.007-0.016c0,0,0,0,0,0
		c-0.02-0.036-0.043-0.07-0.069-0.102c-0.009-0.011-0.021-0.021-0.031-0.031c-0.018-0.019-0.035-0.038-0.054-0.054
		c-0.013-0.012-0.029-0.021-0.042-0.031l0.001-0.002c-4.174-3.036-7.088-3.183-9.66-3.312c-0.817-0.041-1.594-0.081-2.372-0.214
		c-2.426-1.898-4.169-4.392-5.96-6.955c-4.191-5.998-8.942-12.795-23.402-12.795c-0.375,0-0.679,0.304-0.679,0.679
		c0,0.375,0.304,0.679,0.679,0.679c2.164,0,3.98,3.127,6.279,7.085c0.901,1.551,1.872,3.222,2.971,4.896
		c-5.401-0.213-9.999,1.018-13.543,1.967c-3.031,0.812-5.425,1.453-6.671,0.75c-0.307-0.174-0.698-0.083-0.896,0.21
		c-0.199,0.293-0.139,0.689,0.138,0.911c1.162,0.931,2.15,1.818,3.106,2.676c2.196,1.973,4.04,3.631,6.467,4.262
		c-3.317,1.521-6.728,3.665-10.323,6.471c-0.285,0.223-0.346,0.629-0.138,0.925c0.208,0.296,0.611,0.378,0.917,0.185
		c0.829-0.52,1.786-0.773,2.925-0.773c1.958,0,4.316,0.734,7.046,1.583c3.943,1.227,8.85,2.753,14.807,2.753
		c9.107,0,18.368-3.561,28.313-10.887c0,0,0-0.001,0.001-0.002c0.027-0.02,0.051-0.042,0.075-0.066
		c0.005-0.005,0.013-0.01,0.018-0.016c0.018-0.019,0.033-0.041,0.048-0.062c0.024-0.033,0.045-0.068,0.062-0.104
		C65.01,41.133,65.018,41.122,65.023,41.109z M61.984,40.102c-2.724-0.199-4.913-0.824-6.742-1.749
		C57.225,38.454,59.277,38.596,61.984,40.102z M23.771,40.047c-3.288,0.129-5.191-1.588-8.079-4.181
		c-0.405-0.363-0.833-0.748-1.286-1.146c1.391-0.099,3.062-0.547,5.052-1.08c3.836-1.027,8.552-2.288,14.146-1.876
		c1.893,2.68,4.164,5.281,7.061,7.317c-2.248-0.461-4.583-0.796-7.07-0.796c-3.265,0-6.508,0.592-9.824,1.812L23.771,40.047z
		 M36.486,50.924c-5.751,0-10.549-1.492-14.404-2.692c-2.836-0.882-5.285-1.645-7.449-1.645c-0.015,0-0.03,0-0.045,0
		c6.753-4.726,12.858-6.946,19.009-6.946c4.003,0,7.663,0.917,11.202,1.804c0.176,0.044,0.353,0.088,0.529,0.132
		c2.361,0.913,5.05,1.473,8.141,1.539c0.729,0.061,1.467,0.096,2.214,0.096c1.644,0,3.25-0.164,4.847-0.496
		C52.133,48.234,44.236,50.924,36.486,50.924z"/>
</g>
<g id="Layer_7">
</g>
</svg>
