<?xml version="1.0" encoding="utf-8"?>
<!-- Generator: Adobe Illustrator 16.0.0, SVG Export Plug-In . SVG Version: 6.00 Build 0)  -->
<!DOCTYPE svg PUBLIC "-//W3C//DTD SVG 1.1//EN" "http://www.w3.org/Graphics/SVG/1.1/DTD/svg11.dtd">
<svg version="1.1" id="Layer_1" xmlns="http://www.w3.org/2000/svg" xmlns:xlink="http://www.w3.org/1999/xlink" x="0px" y="0px"
	 width="509.231px" height="486.154px" viewBox="0 0 509.231 486.154" enable-background="new 0 0 509.231 486.154"
	 xml:space="preserve">
<g>
	<defs>
		<rect id="SVGID_1_" width="509.231" height="486.154"/>
	</defs>
	<clipPath id="SVGID_2_">
		<use xlink:href="#SVGID_1_"  overflow="visible"/>
	</clipPath>
	<path clip-path="url(#SVGID_2_)" fill="#EFEAB0" d="M351.177,300.65c-0.727-2.51-3.048-2.969-4.435-3.244
		c-1.44-0.284-3.618-0.716-5.456-2.069c-3.36-2.478-7.26-10.265-10.974-18.31c-4.396-9.526-15.474-46.488-16.077-71.812
		c-0.604-25.448-2.014-28.165-11.601-35.461c-3.059-2.328-6.828-3.509-11.204-3.509c-5.416,0-10.398,1.861-12.462,2.747
		c-0.88-0.027-2.363-0.057-4.589-0.057c-2.271,0-4.874,0.031-7.741,0.091c-10.199,0.213-19.127,6.564-20.527,9.114
		c-0.74,1.347-0.722,2.909,0.05,4.181c1.202,1.98,3.188,2.042,4.941,2.097c3.162,0.1,10.566,0.333,18.597,5.085
		c1.455,0.861,1.895,1.12,1.609,4.475c-0.392,4.629-2.497,13.167-5.983,27.312c-0.478,1.934-0.984,3.994-1.517,6.159
		c-9.604,3.275-19.019,5.076-24.04,5.565h-10.448l10.196-61.117h-59.183l9.526,61.117h-16.112l1.21,3.892
		c0.45,1.447,4.637,14.14,12.892,14.14h36.799l1.627,0.373c0.873,0.197,15.594,3.514,31.866,6.029
		c-1.97,18.863-0.091,34.604,5.407,46.353c-2.354-0.141-4.401-0.537-6.078-1.211c-6.257-2.52-9.025-5.207-9.204-5.38
		c-1.248-1.104-3.573-2.954-5.11-2.954c-0.489,0-0.933,0.153-1.285,0.444c-0.969,0.802-1.315,2.753-1.022,5.874
		c0.242,3.187,1.74,14.053,10.879,20.156c3.349,2.235,9.94,5.985,16.46,5.985c4.535,0,8.218-1.821,10.743-5.204
		c2.902,1.762,6.083,3.157,9.547,4.149c3.881,1.112,7.97,1.678,12.152,1.678c1.292,0,2.574-0.067,3.85-0.168
		c-4.175,1.689-6.745,1.891-6.946,1.906c-6.034,0.761-6.087,2.429-6.109,3.141c-0.04,1.257,1.195,2.806,3.731,4.649
		c2.349,1.773,8.672,5.896,16.659,5.896c1.92,0,3.823-0.248,5.657-0.735c3.892-1.036,11.062-3.504,15.371-8.395
		c2.829-3.209,3.824-10.148,1.09-16.649c9.329-5.556,15.639-11.507,16.536-12.703C351.576,302.809,351.387,301.374,351.177,300.65
		 M232.433,177.896l-9.158,54.893h-27.377l-8.556-54.893H232.433z M328.042,320.256c1.896,3.775,1.8,6.362-0.326,8.917
		c-2.134,2.564-6.393,4.797-11.989,6.286c-1.062,0.281-2.216,0.425-3.43,0.425c-2.72,0-5.479-0.707-7.889-1.61
		c2.282-0.685,4.392-1.513,6.303-2.475c2.81-1.414,5.59-3.668,8.26-6.7c0.454-0.515,0.873-1.022,1.271-1.518
		c2.712-0.998,5.312-2.142,7.771-3.364C328.021,320.227,328.035,320.247,328.042,320.256 M234.365,247.226
		c2.384-2.68,3.99-6.157,4.847-8.349c4.61-0.327,13.459-1.889,23.015-4.9c-1.456,6.147-2.582,12.059-3.379,17.714
		C249.245,250.202,240.195,248.431,234.365,247.226 M273.772,182.617c-4.221-2.498-8.324-3.973-11.904-4.852
		c1.549-0.422,3.217-0.706,4.938-0.742c2.811-0.058,5.359-0.089,7.573-0.089c3.643,0,5.131,0.083,5.141,0.083l1.064,0.058
		l0.947-0.466c0.031-0.015,2.153-1.042,5.04-1.737c1.651,0.013,2.504,0.321,2.924,0.581c0.322,0.199,0.54,0.44,0.631,1.025
		c0.13,0.833-0.408,1.515-1.101,2.039c-0.838-0.406-1.84-0.645-2.933-0.645c-2.997,0-5.344,1.761-5.344,4.008
		c0,2.248,2.347,4.009,5.344,4.009c0.529,0,1.027-0.073,1.506-0.175c2.634,1.166,9.212,5.499,5.983,18.953
		c-1.991,8.295-10.641,14.62-20.649,19.182c0.052-0.213,0.107-0.435,0.159-0.645c3.702-15.021,5.742-23.294,6.188-28.551
		C279.791,188.638,278.247,185.263,273.772,182.617 M182.267,239.013h50.33c-1.488,3.015-3.607,6.032-5.575,6.032H187.85
		C185.983,245.045,183.83,242.168,182.267,239.013 M273.492,317.461c-1.25,1.665-2.96,2.456-5.304,2.456
		c-3.506,0-8.011-1.72-12.685-4.84c-3.19-2.132-5.264-5.762-6.599-9.28c2.027,1.262,4.044,2.3,6.03,3.097
		c2.918,1.174,6.444,1.77,10.487,1.77c0.699,0,1.367-0.022,2.014-0.054C269.22,313.176,271.248,315.453,273.492,317.461
		 M290.685,317.972c-19.343-5.546-27.998-27.151-24.649-59.391c4.431,0.581,8.83,1.059,12.96,1.355
		c12.812,0.921,13.502,7.756,14.755,20.167c0.586,5.806,1.25,12.387,3.511,19.167c3.517,10.552,9.982,15.708,15.856,18.213
		c-4.032,1.146-8.239,1.854-12.485,1.854C297.194,319.338,293.848,318.878,290.685,317.972 M322.552,313.949
		c-4.89-0.391-15.248-2.88-19.791-16.512c-2.057-6.17-2.687-12.41-3.243-17.918c-1.251-12.39-2.432-24.093-20.106-25.365
		c-4.022-0.289-8.321-0.758-12.656-1.326c0.83-5.842,2.014-11.985,3.587-18.428c0.307-1.259,0.604-2.469,0.895-3.656
		c13.011-5.308,25.259-13.372,27.983-24.724c3.332-13.881-2.303-20.752-5.879-23.578c2.026-1.898,2.915-4.291,2.516-6.857
		c-0.032-0.206-0.079-0.404-0.125-0.603c0.771,0.302,1.478,0.695,2.12,1.184c7.091,5.397,7.832,5.961,8.386,29.238
		c0.63,26.402,12.214,65.012,16.812,74.975c5.073,10.994,8.907,18.019,13.49,21.396c0.976,0.721,1.971,1.285,2.936,1.736
		C335.581,306.581,329.604,310.686,322.552,313.949"/>
	<path clip-path="url(#SVGID_2_)" fill="#EFEAB0" d="M204.053,171.354c3.225,0,5.849-2.625,5.849-5.851s-2.624-5.851-5.849-5.851
		c-3.227,0-5.853,2.625-5.853,5.851S200.826,171.354,204.053,171.354"/>
	<path clip-path="url(#SVGID_2_)" fill="#EFEAB0" d="M201.297,222.403c0,3.076,2.502,5.578,5.577,5.578
		c3.075,0,5.577-2.502,5.577-5.578c0-3.075-2.502-5.577-5.577-5.577C203.799,216.826,201.297,219.328,201.297,222.403"/>
	<path clip-path="url(#SVGID_2_)" fill="#EFEAB0" d="M218.043,195.032c3.59,0,6.512-2.923,6.512-6.516
		c0-3.59-2.922-6.511-6.512-6.511c-3.592,0-6.514,2.921-6.514,6.511C211.529,192.109,214.451,195.032,218.043,195.032"/>
	<path clip-path="url(#SVGID_2_)" fill="#EFEAB0" d="M213.029,211.582c2.726,0,4.944-2.219,4.944-4.947
		c0-2.725-2.218-4.943-4.944-4.943c-2.728,0-4.946,2.218-4.946,4.943C208.083,209.363,210.301,211.582,213.029,211.582"/>
	<path clip-path="url(#SVGID_2_)" fill="#EFEAB0" d="M200.196,198.748c2.726,0,4.943-2.219,4.943-4.946
		c0-2.726-2.217-4.944-4.943-4.944c-2.727,0-4.947,2.218-4.947,4.944C195.249,196.529,197.469,198.748,200.196,198.748"/>
</g>
</svg>
