<?xml version="1.0" encoding="utf-8"?>
<!-- Generator: Adobe Illustrator 16.0.0, SVG Export Plug-In . SVG Version: 6.00 Build 0)  -->
<!DOCTYPE svg PUBLIC "-//W3C//DTD SVG 1.1//EN" "http://www.w3.org/Graphics/SVG/1.1/DTD/svg11.dtd">
<svg version="1.1" id="Layer_1" xmlns="http://www.w3.org/2000/svg" xmlns:xlink="http://www.w3.org/1999/xlink" x="0px" y="0px"
	 width="63px" height="12.995px" viewBox="0 0 63 12.995" enable-background="new 0 0 63 12.995" xml:space="preserve">
<path fill="#FFFFFF" d="M33.622,6.316c-0.539,0-0.928,0.178-1.322,0.358v4.1c0.378,0.037,0.594,0.037,0.952,0.037
	c1.295,0,1.473-0.596,1.473-1.428v-1.96C34.725,6.81,34.521,6.316,33.622,6.316 M25.026,6.092c-0.898,0-1.103,0.496-1.103,1.11
	v0.345h2.204V7.202C26.128,6.588,25.924,6.092,25.026,6.092 M8.374,10.36c0,0.486,0.228,0.738,0.731,0.738
	c0.539,0,0.858-0.178,1.252-0.359V9.767h-1.18C8.619,9.767,8.374,9.872,8.374,10.36 M41.984,6.316c-0.899,0-1.211,0.494-1.211,1.107
	v2.244c0,0.616,0.312,1.111,1.211,1.111c0.896,0,1.211-0.495,1.211-1.111V7.423C43.195,6.81,42.881,6.316,41.984,6.316
	 M3.966,12.875H1.322V6.438H0V4.218h1.322V2.887C1.322,1.077,2.067,0,4.187,0h1.765v2.219H4.849c-0.825,0-0.88,0.31-0.88,0.889
	l-0.003,1.11h1.998L5.73,6.438H3.966V12.875z M13.003,12.892h-2.204l-0.095-0.561c-1.007,0.561-1.905,0.651-2.497,0.651
	c-1.616,0-2.477-1.086-2.477-2.588c0-1.771,1.004-2.404,2.8-2.404h1.827V7.608c0-0.905-0.103-1.17-1.485-1.17H6.611l0.221-2.219
	h2.472c3.034,0,3.699,0.965,3.699,3.407V12.892z M20.497,6.6c-1.371-0.236-1.765-0.289-2.425-0.289
	c-1.186,0-1.544,0.264-1.544,1.275v1.916c0,1.013,0.358,1.276,1.544,1.276c0.66,0,1.054-0.052,2.425-0.29v2.164
	c-1.201,0.271-1.983,0.342-2.646,0.342c-2.839,0-3.967-1.502-3.967-3.671V7.77c0-2.172,1.128-3.677,3.967-3.677
	c0.662,0,1.444,0.072,2.646,0.344V6.6z M28.772,9.324h-4.849v0.179c0,1.013,0.357,1.276,1.543,1.276c1.065,0,1.716-0.052,3.084-0.29
	v2.164c-1.32,0.271-2.008,0.342-3.304,0.342c-2.839,0-3.968-1.502-3.968-3.671V7.546c0-1.897,0.838-3.453,3.747-3.453
	s3.746,1.537,3.746,3.453V9.324z M37.368,9.364c0,2.098-0.596,3.627-4.205,3.627c-1.303,0-2.068-0.115-3.507-0.338V0.667L32.3,0.223
	v4.192c0.571-0.214,1.311-0.322,1.983-0.322c2.645,0,3.085,1.193,3.085,3.108V9.364z M45.842,9.411c0,1.809-0.742,3.562-3.849,3.562
	c-3.108,0-3.864-1.754-3.864-3.562V7.664c0-1.809,0.756-3.564,3.864-3.564c3.106,0,3.849,1.755,3.849,3.564V9.411z M54.309,9.411
	c0,1.809-0.743,3.562-3.848,3.562c-3.108,0-3.865-1.754-3.865-3.562V7.664c0-1.809,0.757-3.564,3.865-3.564
	c3.104,0,3.848,1.755,3.848,3.564V9.411z M63,12.875h-2.866l-2.423-4.068v4.068h-2.645V0.667l2.645-0.443v7.859l2.423-3.864H63
	l-2.646,4.217L63,12.875z M50.451,6.316c-0.897,0-1.209,0.494-1.209,1.107v2.244c0,0.616,0.312,1.111,1.209,1.111
	s1.215-0.495,1.215-1.111V7.423C51.666,6.81,51.349,6.316,50.451,6.316"/>
</svg>
