<?xml version="1.0" encoding="utf-8"?>
<!-- Generator: Adobe Illustrator 18.0.0, SVG Export Plug-In . SVG Version: 6.00 Build 0)  -->
<!DOCTYPE svg PUBLIC "-//W3C//DTD SVG 1.1//EN" "http://www.w3.org/Graphics/SVG/1.1/DTD/svg11.dtd">
<svg version="1.1" xmlns="http://www.w3.org/2000/svg" xmlns:xlink="http://www.w3.org/1999/xlink" x="0px" y="0px"
	 viewBox="0 0 64 38" enable-background="new 0 0 64 38" xml:space="preserve">
	<g opacity="1">
		<path fill="#231F20" d="M36.9,10.7h-1.5v6.9h1.5c0.5,0,0.9-0.1,1.2-0.4c0.3-0.3,0.4-0.8,0.4-1.5v-3c0-0.7-0.1-1.2-0.4-1.5
			C37.8,10.8,37.4,10.7,36.9,10.7z"/>
		<polygon fill="#231F20" points="45.2,21.7 48.3,21.7 46.8,11.4 			"/>
		<path fill="#231F20" d="M0,0v38h64V0H0z M19.8,28.1H17V16.6L12,28.1H9.7V7.8h2.8V20l5-12.2h2.3V28.1z M30.3,10.7H25v17.4h-3.2
			V7.8h8.4V10.7z M36.9,20.5h-1.5v7.6h-3.2V7.8h4.7c1.6,0,2.8,0.4,3.6,1.3c0.8,0.9,1.2,2.1,1.2,3.7v2.6c0,1.6-0.4,2.9-1.2,3.7
			C39.7,20,38.5,20.5,36.9,20.5z M49.3,28.1l-0.6-3.7h-3.9l-0.6,3.7h-2.9l3.2-20.3h4.7l3.2,20.3H49.3z"/>
	</g>
</svg>
