<?xml version="1.0" encoding="utf-8"?>
<!-- Generator: Adobe Illustrator 18.0.0, SVG Export Plug-In . SVG Version: 6.00 Build 0)  -->
<!DOCTYPE svg PUBLIC "-//W3C//DTD SVG 1.1//EN" "http://www.w3.org/Graphics/SVG/1.1/DTD/svg11.dtd">
<svg version="1.1" id="Layer_1" xmlns="http://www.w3.org/2000/svg" xmlns:xlink="http://www.w3.org/1999/xlink" x="0px" y="0px"
	 viewBox="0 0 99 38" enable-background="new 0 0 99 38" xml:space="preserve">
<g opacity="1">
	<path fill="#231F20" d="M48.2,20h-1.4v6.2h1.8c0.5,0,1-0.1,1.2-0.4c0.3-0.3,0.4-0.8,0.4-1.6v-1.8c0-0.9-0.2-1.6-0.5-1.9
		C49.4,20.1,48.9,20,48.2,20z"/>
	<path fill="#231F20" d="M49.4,16.6c0.3-0.3,0.5-0.9,0.5-1.7v-1.1c0-0.7-0.1-1.3-0.4-1.6c-0.3-0.3-0.7-0.5-1.2-0.5h-1.5v5.4H48
		C48.6,17.1,49.1,16.9,49.4,16.6z"/>
	<polygon fill="#231F20" points="71,22.7 74,22.7 72.5,12.4 	"/>
	<polygon fill="#231F20" points="34.7,22.7 37.7,22.7 36.2,12.4 	"/>
	<path fill="#231F20" d="M0,0v38h99V0H0z M12.9,29.1H9.7V8.8h8.4v2.9h-5.2V29.1z M29.2,29.1H26V11.7h-2.7v8c0,1.6-0.1,3-0.2,4.2
		c-0.2,1.2-0.4,2.2-0.9,2.9c-0.4,0.8-1,1.3-1.8,1.7c-0.7,0.4-1.7,0.6-2.9,0.6h-0.3v-2.9h0.4c0.6,0,1.1-0.2,1.4-0.5
		c0.4-0.3,0.6-0.7,0.8-1.3c0.2-0.6,0.3-1.3,0.4-2.1c0.1-0.8,0.1-1.7,0.1-2.7V8.8h8.8V29.1z M38.7,29.1l-0.6-3.7h-3.9l-0.6,3.7h-2.9
		L34,8.8h4.7l3.2,20.3H38.7z M53.4,24.3c0,1.6-0.4,2.8-1.2,3.6c-0.8,0.8-2,1.2-3.6,1.2h-5V8.8h4.8c1.7,0,2.9,0.4,3.6,1.2
		c0.7,0.8,1.1,1.9,1.1,3.5v0.7c0,1-0.2,1.9-0.5,2.6c-0.3,0.7-0.9,1.2-1.6,1.5c0.9,0.3,1.5,0.9,1.8,1.6s0.5,1.7,0.5,2.7V24.3z
		 M65.4,29.1h-3.2v-8.7h-3.6v8.7h-3.2V8.8h3.2v8.7h3.6V8.8h3.2V29.1z M75,29.1l-0.6-3.7h-3.9L70,29.1h-2.9l3.2-20.3H75l3.2,20.3H75z
		 M90.5,29.1h-3.2v-8.3h-1.1c-0.7,0-1.3,0.2-1.6,0.6s-0.5,1.1-0.5,2v2.8c0,0.9-0.3,1.6-0.8,2.1c-0.5,0.5-1.4,0.8-2.7,0.8h-1v-2.9
		h0.2c0.4,0,0.6-0.1,0.8-0.2c0.2-0.2,0.3-0.6,0.3-1.2v-1.2c0-1.1,0.2-2,0.5-2.7s0.9-1.3,1.7-1.6c-1.4-0.7-2.1-2-2.1-4.1v-1.6
		c0-1.6,0.4-2.7,1.1-3.5c0.7-0.8,2-1.2,3.6-1.2h4.8V29.1z"/>
	<path fill="#231F20" d="M84.2,13.8v2c0,0.8,0.2,1.4,0.5,1.7c0.3,0.3,0.8,0.5,1.4,0.5h1.2v-6.2h-1.5c-0.6,0-1,0.2-1.2,0.5
		C84.3,12.5,84.2,13.1,84.2,13.8z"/>
</g>
</svg>
