<?xml version="1.0" encoding="utf-8"?>
<!-- Generator: Adobe Illustrator 18.0.0, SVG Export Plug-In . SVG Version: 6.00 Build 0)  -->
<!DOCTYPE svg PUBLIC "-//W3C//DTD SVG 1.1//EN" "http://www.w3.org/Graphics/SVG/1.1/DTD/svg11.dtd">
<svg version="1.1" xmlns="http://www.w3.org/2000/svg" xmlns:xlink="http://www.w3.org/1999/xlink" x="0px" y="0px"
	 viewBox="0 0 179.4 38" enable-background="new 0 0 179.4 38" xml:space="preserve">
<g opacity="1">
	<path fill="#231F20" d="M139.5,20h-1.4v6.2h1.8c0.5,0,1-0.1,1.2-0.4c0.3-0.3,0.4-0.8,0.4-1.6v-1.8c0-0.9-0.2-1.6-0.5-1.9
		C140.8,20.1,140.2,20,139.5,20z"/>
	<path fill="#231F20" d="M117.2,11.7h-1.5v6.9h1.5c0.5,0,0.9-0.1,1.2-0.4c0.3-0.3,0.4-0.8,0.4-1.5v-3c0-0.7-0.1-1.2-0.4-1.5
		C118.1,11.8,117.7,11.7,117.2,11.7z"/>
	<path fill="#231F20" d="M140.7,16.6c0.3-0.3,0.5-0.9,0.5-1.7v-1.1c0-0.7-0.1-1.3-0.4-1.6c-0.3-0.3-0.7-0.5-1.2-0.5h-1.5v5.4h1.2
		C139.9,17.1,140.4,16.9,140.7,16.6z"/>
	<path fill="#231F20" d="M128.2,11.5c-0.5,0-0.9,0.1-1.2,0.4s-0.4,0.8-0.4,1.6v11c0,0.7,0.1,1.3,0.4,1.6s0.7,0.4,1.2,0.4
		c0.5,0,0.9-0.1,1.2-0.4c0.3-0.3,0.4-0.8,0.4-1.6v-11c0-0.7-0.1-1.3-0.4-1.6C129.1,11.6,128.7,11.5,128.2,11.5z"/>
	<polygon fill="#231F20" points="80.3,22.7 83.4,22.7 81.8,12.4 			"/>
	<polygon fill="#231F20" points="163.1,22.7 166.2,22.7 164.6,12.4 			"/>
	<path fill="#231F20" d="M0,0v38h179.4V0H0z M19.8,29.1h-3.2v-8.7h-3.6v8.7H9.7V8.8h3.2v8.7h3.6V8.8h3.2V29.1z M29.4,29.1
		l-0.6-3.7h-3.9l-0.6,3.7h-2.9l3.2-20.3h4.7l3.2,20.3H29.4z M49,29.1H34.2V8.8h3.2v17.4H40V8.8h3.2v17.4h2.6V8.8H49V29.1z
		M58.6,29.1L58,25.4h-3.9l-0.6,3.7h-2.9l3.2-20.3h4.7l3.2,20.3H58.6z M71.6,29.1h-3.2V8.8h8.4v2.9h-5.2V29.1z M84.4,29.1
		l-0.6-3.7h-3.9l-0.6,3.7h-2.9l3.2-20.3h4.7l3.2,20.3H84.4z M98.6,14.2c0,2.2-0.7,3.6-2.2,4.2c0.8,0.3,1.4,0.9,1.7,1.6
		c0.3,0.7,0.5,1.6,0.5,2.7v1.6c0,1.6-0.4,2.9-1.2,3.8c-0.8,0.9-2,1.3-3.6,1.3s-2.8-0.4-3.6-1.3c-0.8-0.9-1.2-2.1-1.2-3.8v-2.6h3
		v2.8c0,0.7,0.1,1.3,0.4,1.6s0.7,0.4,1.2,0.4c0.5,0,0.9-0.2,1.2-0.5c0.3-0.3,0.4-0.9,0.4-1.8v-1.6c0-0.9-0.2-1.6-0.5-2
		C94.6,20.2,94,20,93.3,20h-0.5v-2.9h0.7c0.6,0,1.1-0.2,1.4-0.5c0.3-0.3,0.5-0.9,0.5-1.7v-1.1c0-0.9-0.1-1.5-0.4-1.8
		c-0.3-0.3-0.7-0.5-1.2-0.5c-0.5,0-0.9,0.1-1.2,0.4s-0.4,0.8-0.4,1.6v2.2h-3v-2c0-1.6,0.4-2.9,1.2-3.8c0.8-0.9,2-1.3,3.6-1.3
		s2.8,0.4,3.6,1.3c0.8,0.9,1.2,2.1,1.2,3.8V14.2z M110.5,29.1h-2.9V17.6l-4.9,11.5h-2.3V8.8h2.8V21l5-12.2h2.3V29.1z M122,16.5
		c0,1.6-0.4,2.9-1.2,3.7c-0.8,0.9-2,1.3-3.6,1.3h-1.5v7.6h-3.2V8.8h4.7c1.6,0,2.8,0.4,3.6,1.3c0.8,0.9,1.2,2.1,1.2,3.7V16.5z
		M133,24.2c0,1.6-0.4,2.9-1.2,3.8c-0.8,0.9-2,1.3-3.6,1.3s-2.8-0.4-3.6-1.3c-0.8-0.9-1.2-2.1-1.2-3.8V13.7c0-1.6,0.4-2.9,1.2-3.8
		c0.8-0.9,2-1.3,3.6-1.3s2.8,0.4,3.6,1.3c0.8,0.9,1.2,2.1,1.2,3.8V24.2z M144.7,24.3c0,1.6-0.4,2.8-1.2,3.6
		c-0.8,0.8-2,1.2-3.6,1.2h-5V8.8h4.8c1.7,0,2.9,0.4,3.6,1.2c0.7,0.8,1.1,1.9,1.1,3.5v0.7c0,1-0.2,1.9-0.5,2.6
		c-0.3,0.7-0.9,1.2-1.6,1.5c0.9,0.3,1.5,0.9,1.8,1.6s0.5,1.7,0.5,2.7V24.3z M157.9,29.1h-1.3c-1,0-1.8-0.2-2.3-0.8
		c-0.6-0.6-0.9-1.3-0.9-2.1v-3.3c0-0.9-0.2-1.6-0.6-2s-1-0.6-1.7-0.6h-1.1v8.8h-3.2V8.8h3.2v8.6h1.2c0.6,0,1.1-0.2,1.6-0.5
		c0.4-0.3,0.7-0.9,0.7-1.7v-3.5c0-0.9,0.3-1.6,0.9-2.1c0.6-0.6,1.4-0.8,2.3-0.8h1.3v2.9h-0.1c-0.3,0-0.5,0-0.7,0
		c-0.2,0-0.3,0-0.5,0.1c-0.1,0.1-0.2,0.2-0.3,0.4c-0.1,0.2-0.1,0.5-0.1,0.9v1.3c0,2.1-0.7,3.5-2.1,4.1c0.8,0.3,1.4,0.9,1.7,1.6
		c0.3,0.7,0.4,1.6,0.4,2.7v1.8c0,0.4,0,0.7,0.1,0.9c0.1,0.2,0.1,0.3,0.3,0.4c0.1,0.1,0.3,0.1,0.5,0.1c0.2,0,0.4,0,0.7,0h0.2V29.1z
		M167.2,29.1l-0.6-3.7h-3.9l-0.6,3.7h-2.9l3.2-20.3h4.7l3.2,20.3H167.2z"/>
	<polygon fill="#231F20" points="54.5,22.7 57.6,22.7 56,12.4 			"/>
	<polygon fill="#231F20" points="25.3,22.7 28.4,22.7 26.9,12.4 			"/>
</g>
</svg>
