<?xml version="1.0" encoding="utf-8"?>
<!-- Generator: Adobe Illustrator 16.0.0, SVG Export Plug-In . SVG Version: 6.00 Build 0)  -->
<!DOCTYPE svg PUBLIC "-//W3C//DTD SVG 1.1//EN" "http://www.w3.org/Graphics/SVG/1.1/DTD/svg11.dtd">
<svg version="1.1" id="Layer_1" xmlns="http://www.w3.org/2000/svg" xmlns:xlink="http://www.w3.org/1999/xlink" x="0px" y="0px"
	 width="84px" height="16.001px" viewBox="0 0 84 16.001" enable-background="new 0 0 84 16.001" xml:space="preserve">
<g>
	<g>
		<path fill-rule="evenodd" clip-rule="evenodd" fill="#FFFFFF" d="M39.944,6.615h-2.562V3.678h-2.477v8.481h2.477V8.526h2.562
			v3.633h2.476V3.678h-2.476V6.615z M29.631,3.413c-1.297,0-2.306,0.399-3.025,1.197c-0.72,0.798-1.079,1.902-1.079,3.312
			c0,1.395,0.359,2.493,1.079,3.296c0.719,0.804,1.728,1.204,3.025,1.204c1.306,0,2.317-0.4,3.032-1.204s1.072-1.901,1.072-3.296
			c0-1.4-0.358-2.501-1.075-3.304C31.942,3.815,30.933,3.413,29.631,3.413z M31.081,9.202c-0.076,0.305-0.187,0.565-0.333,0.781
			c-0.123,0.182-0.287,0.318-0.492,0.408c-0.205,0.091-0.407,0.137-0.605,0.137c-0.241,0-0.46-0.046-0.658-0.137
			c-0.198-0.09-0.363-0.234-0.495-0.43c-0.127-0.191-0.231-0.447-0.312-0.768c-0.08-0.319-0.12-0.738-0.12-1.257
			s0.042-0.949,0.127-1.292s0.198-0.612,0.339-0.808c0.151-0.206,0.316-0.346,0.496-0.419c0.179-0.073,0.379-0.11,0.602-0.11
			c0.236,0,0.445,0.042,0.629,0.125s0.349,0.23,0.495,0.441C30.893,6.077,31,6.345,31.078,6.68c0.078,0.334,0.117,0.754,0.117,1.257
			C31.194,8.476,31.157,8.897,31.081,9.202z M23.11,7.454c0.052-0.116,0.132-0.31,0.24-0.582c0.042-0.096,0.086-0.194,0.131-0.294
			c0.044-0.101,0.112-0.202,0.201-0.302c0.09-0.096,0.195-0.175,0.315-0.238c0.12-0.063,0.256-0.094,0.407-0.094h0.481V3.678
			c-0.071,0-0.188-0.002-0.354-0.008c-0.166-0.005-0.34-0.007-0.524-0.007c-0.523,0-0.968,0.103-1.333,0.31
			c-0.366,0.207-0.674,0.589-0.923,1.148c-0.062,0.141-0.13,0.302-0.206,0.483c-0.075,0.181-0.146,0.347-0.212,0.499
			c-0.203,0.443-0.391,0.716-0.562,0.819C20.6,7.024,20.339,7.079,19.99,7.083V3.678h-2.477v8.481h2.477V8.798h0.637l1.882,3.361
			h2.852l-2.526-4.365C22.966,7.683,23.058,7.569,23.11,7.454z M54.485,3.436c-0.558,0-1.109,0.052-1.656,0.155
			s-0.943,0.192-1.189,0.268v2.046h0.213c0.373-0.176,0.755-0.321,1.146-0.434c0.391-0.113,0.733-0.17,1.025-0.17
			c0.646,0,1.131,0.089,1.455,0.268c0.322,0.179,0.484,0.502,0.484,0.97v0.045c-0.717,0.05-1.387,0.121-2.01,0.211
			c-0.623,0.091-1.158,0.252-1.606,0.483c-0.443,0.227-0.782,0.534-1.019,0.921s-0.354,0.896-0.354,1.526
			c0,0.766,0.232,1.399,0.697,1.902c0.464,0.504,1.048,0.756,1.75,0.756c0.378,0,0.672-0.031,0.881-0.091
			c0.211-0.061,0.426-0.148,0.648-0.265c0.227-0.121,0.406-0.241,0.541-0.362c0.135-0.12,0.286-0.257,0.456-0.407v0.898h2.462v-5.77
			c0-0.997-0.312-1.738-0.938-2.224C56.848,3.679,55.852,3.436,54.485,3.436z M55.949,9.946c-0.184,0.191-0.39,0.34-0.615,0.445
			c-0.227,0.105-0.448,0.158-0.665,0.158c-0.393,0-0.688-0.074-0.889-0.223c-0.2-0.148-0.301-0.422-0.301-0.818
			c0-0.272,0.061-0.49,0.181-0.654s0.289-0.286,0.506-0.366c0.25-0.096,0.505-0.16,0.765-0.193c0.26-0.033,0.599-0.072,1.019-0.117
			V9.946z M68.105,5.521h2.462v6.638h2.477V5.521h2.463V3.678h-7.401V5.521z M84,7.469c0-1.304-0.307-2.306-0.92-3.006
			c-0.613-0.7-1.529-1.05-2.746-1.05c-1.34,0-2.382,0.413-3.127,1.239c-0.746,0.826-1.118,1.931-1.118,3.315
			c0,1.414,0.399,2.504,1.199,3.27s1.95,1.148,3.45,1.148c0.41,0,0.758-0.021,1.043-0.064s0.562-0.102,0.832-0.178
			c0.292-0.075,0.521-0.149,0.689-0.223c0.167-0.072,0.353-0.152,0.555-0.238V9.5h-0.262c-0.107,0.086-0.248,0.184-0.42,0.295
			c-0.173,0.109-0.36,0.213-0.562,0.309c-0.231,0.111-0.486,0.2-0.765,0.269c-0.278,0.067-0.562,0.102-0.849,0.102
			c-0.336,0-0.645-0.034-0.928-0.102c-0.283-0.068-0.53-0.181-0.742-0.337c-0.217-0.155-0.393-0.365-0.523-0.63
			c-0.133-0.265-0.211-0.593-0.234-0.985H84V7.469z M78.566,6.827c0.028-0.528,0.179-0.946,0.449-1.253
			c0.271-0.307,0.647-0.461,1.129-0.461c0.472,0,0.821,0.146,1.051,0.438c0.229,0.292,0.351,0.718,0.364,1.276H78.566z
			 M43.294,5.521h2.462v6.638h2.477V5.521h2.462V3.678h-7.401V5.521z M65.696,7.454c0.052-0.116,0.132-0.31,0.24-0.582
			c0.043-0.096,0.086-0.194,0.131-0.294s0.112-0.202,0.202-0.302c0.089-0.096,0.194-0.175,0.314-0.238s0.256-0.094,0.407-0.094h0.48
			V3.678c-0.07,0-0.188-0.002-0.354-0.008c-0.165-0.005-0.34-0.007-0.523-0.007c-0.523,0-0.969,0.103-1.334,0.31
			s-0.673,0.589-0.923,1.148c-0.062,0.141-0.13,0.302-0.206,0.483c-0.074,0.181-0.146,0.347-0.211,0.499
			c-0.203,0.443-0.391,0.716-0.562,0.819c-0.173,0.103-0.434,0.157-0.783,0.162V3.678h-2.476v8.481h2.476V8.798h0.638l1.882,3.361
			h2.852L65.42,7.793C65.551,7.683,65.644,7.569,65.696,7.454z M8.615,8.672c-0.132-0.054-0.313-0.084-0.544-0.09
			c-0.23-0.006-0.54-0.009-0.928-0.009H6.741v2.317h0.117c0.566,0,0.958-0.004,1.176-0.012s0.438-0.064,0.664-0.168
			c0.198-0.091,0.342-0.225,0.434-0.4s0.137-0.376,0.137-0.6c0-0.286-0.055-0.51-0.164-0.672C8.996,8.877,8.833,8.755,8.615,8.672z
			 M7.797,6.976c0.149-0.008,0.304-0.052,0.463-0.13c0.175-0.087,0.295-0.207,0.361-0.36S8.72,6.153,8.72,5.951
			c0-0.149-0.036-0.302-0.108-0.46C8.541,5.333,8.429,5.22,8.278,5.149C8.134,5.083,7.964,5.046,7.769,5.041
			C7.572,5.034,7.28,5.031,6.892,5.031H6.741v1.957h0.274C7.387,6.988,7.648,6.984,7.797,6.976z M12.043,0H2.949
			C1.32,0,0,1.409,0,3.148v9.706c0,1.738,1.32,3.147,2.949,3.147h9.094c1.629,0,2.949-1.409,2.949-3.147V3.148
			C14.992,1.409,13.672,0,12.043,0z M11.264,10.964c-0.163,0.348-0.382,0.636-0.658,0.864c-0.326,0.272-0.684,0.467-1.074,0.584
			c-0.39,0.115-0.886,0.174-1.487,0.174H4.576V3.335h3.062c0.637,0,1.119,0.026,1.447,0.078c0.328,0.052,0.635,0.161,0.922,0.326
			c0.311,0.178,0.542,0.416,0.696,0.714s0.23,0.642,0.23,1.031c0,0.452-0.106,0.854-0.317,1.206s-0.503,0.611-0.876,0.776v0.05
			c0.536,0.12,0.964,0.366,1.287,0.736c0.322,0.371,0.483,0.871,0.483,1.5C11.508,10.212,11.427,10.616,11.264,10.964z"/>
	</g>
</g>
</svg>
